<svg width="330" height="389" viewBox="0 0 330 389" fill="none" xmlns="http://www.w3.org/2000/svg">
<path d="M146.306 371.198C142.083 361.567 141.499 349.555 144.448 335.325C144.948 332.914 147.308 331.364 149.719 331.864C152.13 332.363 153.68 334.723 153.18 337.134C149.451 355.129 152.033 368.082 160.599 376.5C161.066 376.958 161.41 377.493 161.632 378.066C162.736 378.487 163.859 378.902 165 379.311V388.95C141.546 380.983 124.596 370.007 113.511 356.914C106.095 348.156 101.579 338.76 99.4391 329.116C98.1374 323.249 97.8146 317.965 98.1052 313.016C94.5329 313.298 91.6493 314.842 89.2385 317.372C88.0462 318.623 87.0584 320.036 86.2782 321.482C86.0076 321.984 85.7849 322.448 85.6089 322.857C85.515 323.075 85.4641 323.207 85.4545 323.234C84.5213 325.897 81.3807 327.034 78.9589 325.587C75.839 323.721 72.9442 321.733 70.2695 319.627C71.975 325.993 72.1379 333.15 70.7212 341.071C67.218 360.659 51.7216 369.806 35.3109 365.497C19.2275 361.274 10.0709 346.06 17.0125 329.619C17.9703 327.35 20.5858 326.288 22.8543 327.245C25.1228 328.203 26.1854 330.819 25.2276 333.087C20.5477 344.171 26.4301 353.945 37.5756 356.872C49.0869 359.894 59.3828 353.817 61.9432 339.501C65.9757 316.954 55.0756 302.843 27.6972 295.997C25.3083 295.399 23.856 292.979 24.4534 290.59C25.0508 288.201 27.4716 286.749 29.8605 287.346C38.0898 289.404 45.135 292.164 50.9689 295.606C49.8406 293.181 48.8648 290.684 48.0378 288.12C43.323 273.5 43.7305 258.073 47.3041 243.34C43.9813 246.301 41.5269 249.942 39.8182 254.169C37.2676 260.48 36.6534 267.249 37.1455 273.055C37.1952 273.641 37.2418 274.03 37.2664 274.192C37.9175 278.494 32.6529 281.086 29.6407 277.946C-18.1413 228.149 -5.07357 153.231 51.2528 133.875C45.529 132.496 40.0937 131.727 34.9898 131.476C31.7542 131.317 28.9008 131.382 26.4644 131.602C25.6335 131.677 24.92 131.764 24.3283 131.854C24.1326 131.884 23.9691 131.912 23.8382 131.936C23.7753 131.947 23.7461 131.953 23.7513 131.952C19.182 132.921 16.3874 127.104 19.9994 124.142C46.3198 102.563 71.2364 95.3188 101.616 100.146C109.807 101.448 130.701 107.404 165 118.077V127.853C129.697 116.838 108.004 110.19 100.217 108.953C76.7495 105.224 57.1551 109.276 36.9452 122.657C46.8725 123.318 57.8006 125.723 69.4688 130.372C73.7196 132.066 72.9657 138.299 68.4337 138.93C38.7258 143.069 17.9519 162.565 11.3895 190.002C6.31649 211.212 10.4077 234.506 22.9191 254.812C17.8309 216.966 27.938 191.576 53.5939 179.691C55.8283 178.656 58.4786 179.629 59.5137 181.863C60.5487 184.097 59.5764 186.748 57.342 187.783C36.2815 197.539 27.5366 218.332 31.4315 251.125C31.4709 251.026 31.5106 250.927 31.5506 250.828C35.4661 241.14 42.594 233.645 53.3844 229.428C57.0624 227.99 60.6557 231.69 59.111 235.325C59.0821 235.393 59.0121 235.564 58.907 235.834C58.7222 236.308 58.5137 236.871 58.2873 237.517C57.631 239.389 56.9712 241.535 56.3538 243.914C52.7887 257.649 52.2283 272.06 56.5247 285.383C59.4112 294.333 64.3851 302.32 71.7498 309.171C65.556 294.479 67.4348 279.614 77.421 265.08C78.8154 263.05 81.5912 262.535 83.6207 263.93C85.6503 265.324 86.1652 268.1 84.7707 270.13C75.28 283.943 74.5927 297.396 82.7612 311.243C82.7684 311.236 82.7757 311.228 82.7829 311.22C84.2802 309.649 85.9278 308.303 87.7208 307.216C84.6676 300.37 86.3208 291.876 92.1263 282.075C93.3812 279.956 96.1161 279.256 98.2348 280.511C100.354 281.766 101.054 284.5 99.7988 286.619C95.0603 294.619 94.0926 300.355 96.2083 304.248C98.5465 303.943 101.042 303.986 103.688 304.417C105.845 304.768 107.43 306.631 107.43 308.817C107.43 309.26 107.19 311.284 107.161 311.575C106.697 316.317 106.863 321.408 108.145 327.185C109.979 335.451 113.861 343.528 120.316 351.152C126.674 358.661 135.244 365.379 146.306 371.198ZM112.239 145.981C101.169 144.749 91.9954 138.684 85.0447 127.853C83.7148 125.781 84.3167 123.022 86.3891 121.692C88.4616 120.363 91.2197 120.964 92.5497 123.037C101.078 136.327 112.963 140.281 129.414 135.139C129.846 134.915 130.283 134.692 130.724 134.467C131.905 133.868 133.29 133.825 134.505 134.348C148.027 140.122 158.192 144.475 165 147.406V157.973C165 157.973 154.304 153.106 132.913 143.371C119.747 150.27 112.404 156.556 110.816 161.609C109.71 165.128 109.578 169.171 110.471 173.778L135.775 187.18C136.833 187.74 137.621 188.702 137.962 189.849C138.856 192.853 139.682 196.109 140.443 199.617C143.092 197.4 145.591 194.164 147.68 189.852C148.753 187.636 151.42 186.71 153.636 187.784C155.852 188.857 156.779 191.524 155.705 193.74C152.118 201.144 147.356 206.224 142.246 209.157C143.067 214.153 143.783 219.556 144.394 225.368C144.652 227.817 142.875 230.011 140.426 230.269C137.977 230.526 135.783 228.75 135.526 226.301C134.991 221.22 134.377 216.476 133.683 212.072C121.099 213.604 109.105 203.339 109.105 183.737C109.105 183.543 109.118 183.352 109.142 183.164L107.112 182.09C99.0319 188.882 93.4354 194.59 90.36 199.115C87.6963 203.035 87.3584 205.14 88.1492 206.108C88.8671 206.988 89.5937 207.933 90.4386 209.075C90.9739 209.798 92.993 212.582 93.4727 213.231C100.159 222.288 105.132 225.849 113.808 225.849C117.096 225.849 119.253 229.286 117.823 232.246C117.793 232.309 117.721 232.462 117.615 232.698C117.429 233.11 117.219 233.594 116.991 234.142C116.334 235.725 115.674 237.491 115.059 239.389C113.472 244.278 112.467 249.127 112.308 253.573H125.009C127.472 253.573 129.468 255.569 129.468 258.032C129.468 260.494 127.472 262.491 125.009 262.491H113.473C114.365 264.958 116.136 268.15 118.531 271.686L127.126 268.512C129.436 267.66 132.001 268.841 132.853 271.151C133.706 273.461 132.525 276.025 130.215 276.878L125.05 278.785C137.557 283.367 148.097 279.849 157.451 267.603C157.271 267.341 157.117 267.057 156.993 266.751C151.405 252.977 143.681 247.324 133.184 248.643C128.375 249.247 126.191 242.825 130.373 240.373C141.82 233.66 153.361 231.584 165 234.142C165 234.144 165 234.839 164.978 235.838L165 235.834V267.605L141.677 242.254L156.618 237.496L164.978 235.838C164.921 238.477 164.712 243.238 163.953 242.97C158.891 241.747 153.832 241.626 148.744 242.623C154.971 245.978 160.105 252.029 164.05 260.607C164.366 260.558 164.685 260.542 165 260.563V272.841C156.089 284.722 145.541 290.323 133.733 289.692C133.926 289.881 134.12 290.07 134.314 290.258C145.326 300.899 156.291 307.759 165 308.817C165 308.919 165 317.836 165 317.836C156.64 317.1 147.422 312.575 138.1 305.364C128.096 318.222 127.579 330.491 136.305 343.205C137.698 345.235 137.182 348.011 135.151 349.404C133.121 350.798 130.345 350.281 128.952 348.251C117.896 332.141 118.753 315.578 131.271 299.624C130.219 298.669 129.167 297.684 128.118 296.67C116.822 285.754 107.239 272.537 104.727 264.453C103.714 261.192 103.293 257.632 103.379 253.826C103.506 248.277 104.69 242.452 106.577 236.636C106.854 235.782 107.139 234.952 107.429 234.148C103.446 233.339 99.8798 231.746 96.6373 229.424C92.9063 226.752 90.011 223.556 86.2985 218.528C85.7883 217.837 83.7729 215.058 83.2701 214.379C82.5027 213.341 81.8579 212.503 81.2412 211.747C79.4723 209.58 78.7192 207.125 78.8669 204.446C66.9551 202.19 57.5606 207.065 49.9398 219.77C48.6732 221.882 45.9345 222.567 43.8228 221.301C41.711 220.034 41.0259 217.295 42.2925 215.184C51.7838 199.36 64.8475 192.636 80.7299 195.723C81.0897 195.793 81.4309 195.904 81.7496 196.051C82.1267 195.409 82.5388 194.759 82.9848 194.103C86.6336 188.734 92.8378 182.416 101.636 175.044C100.564 169.21 100.772 163.827 102.309 158.936C103.686 154.556 107 150.273 112.239 145.981ZM73.4261 69.98C73.2995 69.9264 73.1743 69.8665 73.0508 69.8002L45.6338 55.0799C43.4642 53.9151 42.6498 51.2121 43.8146 49.0425C44.9794 46.873 47.6824 46.0585 49.852 47.2233L61.7678 53.621L48.8702 35.523C46.2522 31.8493 50.1207 27.0563 54.2642 28.84L110.101 52.8766L114.73 25.0733C115.537 20.2235 122.449 20.059 123.486 24.8648C126.529 38.9588 130.206 48.5254 134.267 53.4154C137.504 57.3144 140.438 57.8554 144.603 55.3865C146.052 54.5273 146.905 51.6419 146.163 48.4619C145.301 44.7673 142.688 42.0537 138.682 41.2931C135.855 40.7564 134.269 37.7222 135.442 35.0948C138.446 28.3672 141.976 25.4567 149.363 21.8306C150.918 21.067 151.144 20.9551 151.772 20.6291C158.663 17.0533 162.374 12.0245 165 0V21.9692C161.168 26.3598 159.544 26.6424 155.88 28.5441C155.166 28.9144 154.923 29.035 153.292 29.8355C149.804 31.5478 147.685 32.8448 146.113 34.6095C150.598 37.1243 153.666 41.3748 154.847 46.4355C156.397 53.0755 154.358 59.97 149.15 63.0573C141.178 67.7831 133.418 66.352 127.406 59.1122C124.766 55.9321 122.4 51.5891 120.275 46.0635L117.962 59.9542C117.487 62.8092 114.46 64.4616 111.801 63.3172L65.3896 43.3379L92.9189 81.9671C140.973 95.2897 165 101.951 165 101.951V111.827C163.42 111.381 138.083 104.147 88.9897 90.1246C88.0119 89.8491 87.1575 89.2479 86.5679 88.4206L73.4261 69.98ZM104.86 78.6485C102.554 79.5115 99.9845 78.3415 99.1215 76.0352C98.2585 73.7289 99.4285 71.1597 101.735 70.2967C107.239 68.2372 112.491 67.8906 117.669 69.0004C121.585 69.8397 124.931 71.2925 129.522 73.8266C137.336 78.1399 138.678 78.656 140.627 77.9513C141.415 77.6662 142.282 77.0555 143.265 75.991C144.935 74.1815 147.756 74.0687 149.565 75.7389C151.375 77.4091 151.488 80.2299 149.817 82.0394C147.915 84.1 145.878 85.5348 143.66 86.3371C140.377 87.5242 137.081 87.2499 133.487 85.8687C132.179 85.366 130.851 84.7304 129.245 83.8692C128.353 83.3914 125.233 81.645 125.212 81.6336C117.043 77.1244 111.886 76.0192 104.86 78.6485ZM102.746 30.5786C104.802 31.9348 105.368 34.7004 104.012 36.7557C102.656 38.8111 99.8905 39.3779 97.8351 38.0218L75.1364 23.045C73.081 21.6889 72.5142 18.9233 73.8703 16.8679C75.2265 14.8125 77.9921 14.2457 80.0474 15.6018L102.746 30.5786ZM54.8027 75.0913C56.9808 76.2402 57.815 78.9372 56.6661 81.1152C55.5172 83.2933 52.8202 84.1275 50.6422 82.9786L11.6145 62.3913C9.43652 61.2424 8.60227 58.5454 9.75119 56.3674C10.9001 54.1894 13.5971 53.3551 15.7751 54.504L54.8027 75.0913ZM36.2245 38.9248C38.3647 40.1426 39.1124 42.8649 37.8945 45.0051C36.6766 47.1453 33.9543 47.893 31.8141 46.6751L12.3003 35.5708C10.1601 34.3529 9.41242 31.6306 10.6303 29.4904C11.8482 27.3502 14.5704 26.6026 16.7106 27.8204L36.2245 38.9248ZM31.2356 303.945C33.4136 305.094 34.2478 307.791 33.0989 309.969C31.95 312.147 29.253 312.981 27.075 311.832L7.56118 301.538C5.38318 300.389 4.54893 297.692 5.69785 295.514C6.84676 293.336 9.54375 292.502 11.7218 293.651L31.2356 303.945ZM75.8111 378.677C77.7432 380.204 78.072 383.008 76.5454 384.94C75.0189 386.872 72.215 387.201 70.2828 385.674L57.2544 375.38C55.3222 373.854 54.9934 371.05 56.52 369.118C58.0466 367.186 60.8504 366.857 62.7826 368.384L75.8111 378.677ZM34.2111 377.424C36.0612 379.049 36.2436 381.866 34.6185 383.716C32.9935 385.566 30.1763 385.749 28.3262 384.124L25.8364 381.937C23.9863 380.312 23.8039 377.495 25.429 375.644C27.0541 373.794 29.8712 373.612 31.7213 375.237L34.2111 377.424ZM21.922 365.966C23.8323 367.519 24.1214 370.327 22.5677 372.238C21.0139 374.148 18.2057 374.437 16.2953 372.884L1.6455 360.969C-0.264881 359.415 -0.553985 356.607 0.999767 354.696C2.55352 352.786 5.36175 352.497 7.27213 354.051L21.922 365.966ZM109.269 13.9497C111.236 15.4316 111.629 18.2272 110.147 20.1938C108.665 22.1604 105.869 22.5533 103.903 21.0714L94.2206 13.7753C92.254 12.2934 91.8611 9.49779 93.343 7.53119C94.825 5.56459 97.6206 5.1717 99.5872 6.65364L109.269 13.9497ZM67.9293 8.27804C69.8942 9.76224 70.2839 12.5583 68.7997 14.5232C67.3155 16.4881 64.5194 16.8778 62.5545 15.3936L56.1151 10.5296C54.1502 9.04542 53.7605 6.24937 55.2447 4.28446C56.7289 2.31955 59.5249 1.92985 61.4898 3.41404L67.9293 8.27804ZM16.9895 279.023C19.0344 280.395 19.58 283.165 18.2081 285.21C16.8362 287.254 14.0663 287.8 12.0214 286.428L4.77134 281.564C2.72645 280.192 2.18088 277.422 3.55277 275.378C4.92467 273.333 7.69453 272.787 9.73942 274.159L16.9895 279.023ZM92.4452 70.3306C89.9827 70.3306 87.9865 68.3344 87.9865 65.8719C87.9865 63.4094 89.9827 61.4132 92.4452 61.4132C94.9077 61.4132 96.9039 63.4094 96.9039 65.8719C96.9039 68.3344 94.9077 70.3306 92.4452 70.3306ZM135.411 17.5105C132.948 17.5105 130.952 15.5143 130.952 13.0518C130.952 10.5894 132.948 8.59316 135.411 8.59316C137.873 8.59316 139.869 10.5894 139.869 13.0518C139.869 15.5143 137.873 17.5105 135.411 17.5105ZM64.4771 91.538C62.0147 91.538 60.0185 89.5417 60.0185 87.0793C60.0185 84.6168 62.0147 82.6206 64.4771 82.6206C66.9396 82.6206 68.9358 84.6168 68.9358 87.0793C68.9358 89.5417 66.9396 91.538 64.4771 91.538ZM88.7972 340.688C86.3347 340.688 84.3385 338.692 84.3385 336.23C84.3385 333.767 86.3347 331.771 88.7972 331.771C91.2597 331.771 93.2559 333.767 93.2559 336.23C93.2559 338.692 91.2597 340.688 88.7972 340.688ZM40.9678 26.4279C38.5053 26.4279 36.5091 24.4316 36.5091 21.9692C36.5091 19.5067 38.5053 17.5105 40.9678 17.5105C43.4302 17.5105 45.4264 19.5067 45.4264 21.9692C45.4264 24.4316 43.4302 26.4279 40.9678 26.4279ZM40.9046 319.604C38.8002 318.325 38.131 315.582 39.4098 313.478C40.6886 311.374 43.4312 310.704 45.5356 311.983C57.5964 319.313 57.5964 331.485 46.7936 345.962C45.3209 347.936 42.5272 348.342 40.5536 346.87C38.58 345.397 38.174 342.603 39.6466 340.63C47.6696 329.877 47.6696 323.715 40.9046 319.604ZM77.7209 349.788C78.8162 347.583 81.4921 346.683 83.6975 347.778C85.9029 348.874 86.8028 351.55 85.7075 353.755C81.479 362.269 82.857 368.632 87.9001 371.676C92.9984 374.754 100.614 373.725 106.534 368.351C108.357 366.696 111.177 366.832 112.832 368.655C114.487 370.478 114.351 373.298 112.528 374.953C103.784 382.891 91.8852 384.498 83.2918 379.311C74.0242 373.716 71.5382 362.237 77.7209 349.788ZM89.8863 353.181C89.9283 350.719 91.9582 348.757 94.4203 348.799C96.8824 348.841 98.8443 350.871 98.8023 353.333C98.7789 354.709 98.9257 355.718 99.1752 356.343C99.292 356.636 99.3493 356.703 99.4019 356.731C100.007 357.054 101.858 356.879 104.891 355.653C107.174 354.73 109.773 355.832 110.696 358.115C111.619 360.398 110.517 362.997 108.234 363.92C97.2133 368.375 89.6958 364.358 89.8863 353.181Z" fill="#2D1F38"/>
<path d="M183.694 371.198C187.917 361.567 188.5 349.555 185.552 335.325C185.052 332.914 182.692 331.364 180.281 331.864C177.87 332.363 176.32 334.723 176.82 337.134C180.549 355.129 177.967 368.082 169.401 376.5C168.934 376.958 168.59 377.493 168.368 378.066C167.264 378.487 166.141 378.902 165 379.311V388.95C188.454 380.983 205.404 370.007 216.489 356.914C223.905 348.156 228.421 338.76 230.561 329.116C231.863 323.249 232.185 317.965 231.895 313.016C235.467 313.298 238.351 314.842 240.761 317.372C241.954 318.623 242.942 320.036 243.722 321.482C243.992 321.984 244.215 322.448 244.391 322.857C244.485 323.075 244.536 323.207 244.546 323.234C245.479 325.897 248.619 327.034 251.041 325.587C254.161 323.721 257.056 321.733 259.731 319.627C258.025 325.993 257.862 333.15 259.279 341.071C262.782 360.659 278.278 369.806 294.689 365.497C310.773 361.274 319.929 346.06 312.988 329.619C312.03 327.35 309.414 326.288 307.146 327.245C304.877 328.203 303.815 330.819 304.772 333.087C309.452 344.171 303.57 353.945 292.424 356.872C280.913 359.894 270.617 353.817 268.057 339.501C264.024 316.954 274.924 302.843 302.303 295.997C304.692 295.399 306.144 292.979 305.547 290.59C304.949 288.201 302.528 286.749 300.139 287.346C291.91 289.404 284.865 292.164 279.031 295.606C280.159 293.181 281.135 290.684 281.962 288.12C286.677 273.5 286.269 258.073 282.696 243.34C286.019 246.301 288.473 249.942 290.182 254.169C292.732 260.48 293.347 267.249 292.855 273.055C292.805 273.641 292.758 274.03 292.734 274.192C292.082 278.494 297.347 281.086 300.359 277.946C348.141 228.149 335.074 153.231 278.747 133.875C284.471 132.496 289.906 131.727 295.01 131.476C298.246 131.317 301.099 131.382 303.536 131.602C304.367 131.677 305.08 131.764 305.672 131.854C305.867 131.884 306.031 131.912 306.162 131.936C306.225 131.947 306.254 131.953 306.249 131.952C310.818 132.921 313.613 127.104 310.001 124.142C283.68 102.563 258.764 95.3188 228.384 100.146C220.193 101.448 199.299 107.404 165 118.077V127.853C200.303 116.838 221.996 110.19 229.783 108.953C253.25 105.224 272.845 109.276 293.055 122.657C283.128 123.318 272.199 125.723 260.531 130.372C256.28 132.066 257.034 138.299 261.566 138.93C291.274 143.069 312.048 162.565 318.611 190.002C323.683 211.212 319.592 234.506 307.081 254.812C312.169 216.966 302.062 191.576 276.406 179.691C274.172 178.656 271.521 179.629 270.486 181.863C269.451 184.097 270.424 186.748 272.658 187.783C293.718 197.539 302.463 218.332 298.568 251.125C298.529 251.026 298.489 250.927 298.449 250.828C294.534 241.14 287.406 233.645 276.616 229.428C272.938 227.99 269.344 231.69 270.889 235.325C270.918 235.393 270.988 235.564 271.093 235.834C271.278 236.308 271.486 236.871 271.713 237.517C272.369 239.389 273.029 241.535 273.646 243.914C277.211 257.649 277.772 272.06 273.475 285.383C270.589 294.333 265.615 302.32 258.25 309.171C264.444 294.479 262.565 279.614 252.579 265.08C251.185 263.05 248.409 262.535 246.379 263.93C244.35 265.324 243.835 268.1 245.229 270.13C254.72 283.943 255.407 297.396 247.239 311.243C247.232 311.236 247.224 311.228 247.217 311.22C245.72 309.649 244.072 308.303 242.279 307.216C245.332 300.37 243.679 291.876 237.874 282.075C236.619 279.956 233.884 279.256 231.765 280.511C229.646 281.766 228.946 284.5 230.201 286.619C234.94 294.619 235.907 300.355 233.792 304.248C231.453 303.943 228.958 303.986 226.312 304.417C224.155 304.768 222.57 306.631 222.57 308.817C222.57 309.26 222.81 311.284 222.839 311.575C223.303 316.317 223.137 321.408 221.855 327.185C220.021 335.451 216.139 343.528 209.684 351.152C203.326 358.661 194.756 365.379 183.694 371.198ZM217.761 145.981C228.831 144.749 238.005 138.684 244.955 127.853C246.285 125.781 245.683 123.022 243.611 121.692C241.538 120.363 238.78 120.964 237.45 123.037C228.922 136.327 217.037 140.281 200.586 135.139C200.154 134.915 199.717 134.692 199.276 134.467C198.095 133.868 196.71 133.825 195.495 134.348C181.973 140.122 171.808 144.475 165 147.406V157.973C165 157.973 175.695 153.106 197.087 143.371C210.253 150.27 217.596 156.556 219.184 161.609C220.29 165.128 220.422 169.171 219.529 173.778L194.225 187.18C193.167 187.74 192.379 188.702 192.038 189.849C191.144 192.853 190.318 196.109 189.557 199.617C186.908 197.4 184.409 194.164 182.32 189.852C181.247 187.636 178.58 186.71 176.364 187.784C174.148 188.857 173.221 191.524 174.295 193.74C177.882 201.144 182.644 206.224 187.754 209.157C186.933 214.153 186.217 219.556 185.606 225.368C185.348 227.817 187.125 230.011 189.574 230.269C192.023 230.526 194.217 228.75 194.474 226.301C195.009 221.22 195.623 216.476 196.317 212.072C208.901 213.604 220.895 203.339 220.895 183.737C220.895 183.543 220.882 183.352 220.858 183.164L222.888 182.09C230.968 188.882 236.565 194.59 239.64 199.115C242.304 203.035 242.642 205.14 241.851 206.108C241.133 206.988 240.406 207.933 239.561 209.075C239.026 209.798 237.007 212.582 236.527 213.231C229.841 222.288 224.868 225.849 216.192 225.849C212.904 225.849 210.747 229.286 212.177 232.246C212.207 232.309 212.279 232.462 212.385 232.698C212.571 233.11 212.781 233.594 213.009 234.142C213.666 235.725 214.326 237.491 214.941 239.389C216.528 244.278 217.533 249.127 217.692 253.573H204.991C202.528 253.573 200.532 255.569 200.532 258.032C200.532 260.494 202.528 262.491 204.991 262.491H216.527C215.635 264.958 213.864 268.15 211.469 271.686L202.874 268.512C200.564 267.66 197.999 268.841 197.147 271.151C196.294 273.461 197.475 276.025 199.785 276.878L204.95 278.785C192.443 283.367 181.903 279.849 172.549 267.603C172.729 267.341 172.883 267.057 173.007 266.751C178.595 252.977 186.319 247.324 196.816 248.643C201.625 249.247 203.809 242.825 199.627 240.373C188.18 233.66 176.639 231.584 165 234.142C165 234.144 165 234.839 165.022 235.838L165 235.834V267.605L188.323 242.254L173.382 237.496L165.022 235.838C165.079 238.477 165.288 243.238 166.047 242.97C171.109 241.747 176.168 241.626 181.256 242.623C175.029 245.978 169.895 252.029 165.95 260.607C165.634 260.558 165.315 260.542 165 260.563V272.841C173.911 284.722 184.459 290.323 196.267 289.692C196.074 289.881 195.88 290.07 195.686 290.258C184.674 300.899 173.709 307.759 165 308.817C165 308.919 165 317.836 165 317.836C173.36 317.1 182.578 312.575 191.9 305.364C201.904 318.222 202.421 330.491 193.695 343.205C192.302 345.235 192.818 348.011 194.849 349.404C196.879 350.798 199.655 350.281 201.048 348.251C212.104 332.141 211.247 315.578 198.729 299.624C199.781 298.669 200.833 297.684 201.882 296.67C213.178 285.754 222.761 272.537 225.273 264.453C226.286 261.192 226.707 257.632 226.621 253.826C226.494 248.277 225.31 242.452 223.423 236.636C223.146 235.782 222.861 234.952 222.571 234.148C226.554 233.339 230.12 231.746 233.363 229.424C237.094 226.752 239.989 223.556 243.701 218.528C244.212 217.837 246.227 215.058 246.73 214.379C247.497 213.341 248.142 212.503 248.759 211.747C250.528 209.58 251.281 207.125 251.133 204.446C263.045 202.19 272.439 207.065 280.06 219.77C281.327 221.882 284.065 222.567 286.177 221.301C288.289 220.034 288.974 217.295 287.707 215.184C278.216 199.36 265.152 192.636 249.27 195.723C248.91 195.793 248.569 195.904 248.25 196.051C247.873 195.409 247.461 194.759 247.015 194.103C243.366 188.734 237.162 182.416 228.364 175.044C229.436 169.21 229.228 163.827 227.691 158.936C226.315 154.556 223 150.273 217.761 145.981ZM256.574 69.98C256.7 69.9264 256.826 69.8665 256.949 69.8002L284.366 55.0799C286.536 53.9151 287.35 51.2121 286.185 49.0425C285.021 46.873 282.318 46.0585 280.148 47.2233L268.232 53.621L281.13 35.523C283.748 31.8493 279.879 27.0563 275.736 28.84L219.899 52.8766L215.27 25.0733C214.463 20.2235 207.551 20.059 206.514 24.8648C203.471 38.9588 199.794 48.5254 195.733 53.4154C192.496 57.3144 189.562 57.8554 185.397 55.3865C183.948 54.5273 183.095 51.6419 183.837 48.4619C184.699 44.7673 187.312 42.0537 191.318 41.2931C194.145 40.7564 195.731 37.7222 194.558 35.0948C191.554 28.3672 188.024 25.4567 180.637 21.8306C179.082 21.067 178.856 20.9551 178.228 20.6291C171.337 17.0533 167.626 12.0245 165 0V21.9692C168.832 26.3598 170.456 26.6424 174.12 28.5441C174.834 28.9144 175.077 29.035 176.708 29.8355C180.196 31.5478 182.315 32.8448 183.887 34.6095C179.402 37.1243 176.334 41.3748 175.153 46.4355C173.603 53.0755 175.642 59.97 180.85 63.0573C188.822 67.7831 196.582 66.352 202.594 59.1122C205.234 55.9321 207.6 51.5891 209.725 46.0635L212.038 59.9542C212.513 62.8092 215.54 64.4616 218.199 63.3172L264.61 43.3379L237.081 81.9671C189.027 95.2897 165 101.951 165 101.951V111.827C166.58 111.381 191.917 104.147 241.01 90.1246C241.988 89.8491 242.843 89.2479 243.432 88.4206L256.574 69.98ZM225.14 78.6485C227.446 79.5115 230.016 78.3415 230.879 76.0352C231.742 73.7289 230.571 71.1597 228.265 70.2967C222.761 68.2372 217.509 67.8906 212.331 69.0004C208.415 69.8397 205.069 71.2925 200.478 73.8266C192.664 78.1399 191.322 78.656 189.373 77.9513C188.585 77.6662 187.718 77.0555 186.735 75.991C185.065 74.1815 182.244 74.0687 180.435 75.7389C178.625 77.4091 178.512 80.2299 180.183 82.0394C182.085 84.1 184.122 85.5348 186.34 86.3371C189.623 87.5242 192.919 87.2499 196.513 85.8687C197.821 85.366 199.149 84.7304 200.755 83.8692C201.647 83.3914 204.767 81.645 204.788 81.6336C212.957 77.1244 218.114 76.0192 225.14 78.6485ZM227.254 30.5786C225.198 31.9348 224.632 34.7004 225.988 36.7557C227.344 38.8111 230.11 39.3779 232.165 38.0218L254.864 23.045C256.919 21.6889 257.486 18.9233 256.13 16.8679C254.773 14.8125 252.008 14.2457 249.953 15.6018L227.254 30.5786ZM275.197 75.0913C273.019 76.2402 272.185 78.9372 273.334 81.1152C274.483 83.2933 277.18 84.1275 279.358 82.9786L318.385 62.3913C320.563 61.2424 321.398 58.5454 320.249 56.3674C319.1 54.1894 316.403 53.3551 314.225 54.504L275.197 75.0913ZM293.776 38.9248C291.635 40.1426 290.888 42.8649 292.106 45.0051C293.323 47.1453 296.046 47.893 298.186 46.6751L317.7 35.5708C319.84 34.3529 320.588 31.6306 319.37 29.4904C318.152 27.3502 315.43 26.6026 313.289 27.8204L293.776 38.9248ZM298.764 303.945C296.586 305.094 295.752 307.791 296.901 309.969C298.05 312.147 300.747 312.981 302.925 311.832L322.439 301.538C324.617 300.389 325.451 297.692 324.302 295.514C323.153 293.336 320.456 292.502 318.278 293.651L298.764 303.945ZM254.189 378.677C252.257 380.204 251.928 383.008 253.455 384.94C254.981 386.872 257.785 387.201 259.717 385.674L272.746 375.38C274.678 373.854 275.007 371.05 273.48 369.118C271.953 367.186 269.15 366.857 267.217 368.384L254.189 378.677ZM295.789 377.424C293.939 379.049 293.756 381.866 295.381 383.716C297.007 385.566 299.824 385.749 301.674 384.124L304.164 381.937C306.014 380.312 306.196 377.495 304.571 375.644C302.946 373.794 300.129 373.612 298.279 375.237L295.789 377.424ZM308.078 365.966C306.168 367.519 305.879 370.327 307.432 372.238C308.986 374.148 311.794 374.437 313.705 372.884L328.355 360.969C330.265 359.415 330.554 356.607 329 354.696C327.446 352.786 324.638 352.497 322.728 354.051L308.078 365.966ZM220.731 13.9497C218.764 15.4316 218.371 18.2272 219.853 20.1938C221.335 22.1604 224.131 22.5533 226.097 21.0714L235.779 13.7753C237.746 12.2934 238.139 9.49779 236.657 7.53119C235.175 5.56459 232.379 5.1717 230.413 6.65364L220.731 13.9497ZM262.071 8.27804C260.106 9.76224 259.716 12.5583 261.2 14.5232C262.685 16.4881 265.481 16.8778 267.445 15.3936L273.885 10.5296C275.85 9.04542 276.239 6.24937 274.755 4.28446C273.271 2.31955 270.475 1.92985 268.51 3.41404L262.071 8.27804ZM313.01 279.023C310.966 280.395 310.42 283.165 311.792 285.21C313.164 287.254 315.934 287.8 317.979 286.428L325.229 281.564C327.274 280.192 327.819 277.422 326.447 275.378C325.075 273.333 322.305 272.787 320.261 274.159L313.01 279.023ZM237.555 70.3306C240.017 70.3306 242.013 68.3344 242.013 65.8719C242.013 63.4094 240.017 61.4132 237.555 61.4132C235.092 61.4132 233.096 63.4094 233.096 65.8719C233.096 68.3344 235.092 70.3306 237.555 70.3306ZM194.589 17.5105C197.052 17.5105 199.048 15.5143 199.048 13.0518C199.048 10.5894 197.052 8.59316 194.589 8.59316C192.127 8.59316 190.131 10.5894 190.131 13.0518C190.131 15.5143 192.127 17.5105 194.589 17.5105ZM265.523 91.538C267.985 91.538 269.982 89.5417 269.982 87.0793C269.982 84.6168 267.985 82.6206 265.523 82.6206C263.06 82.6206 261.064 84.6168 261.064 87.0793C261.064 89.5417 263.06 91.538 265.523 91.538ZM241.203 340.688C243.665 340.688 245.661 338.692 245.661 336.23C245.661 333.767 243.665 331.771 241.203 331.771C238.74 331.771 236.744 333.767 236.744 336.23C236.744 338.692 238.74 340.688 241.203 340.688ZM289.032 26.4279C291.495 26.4279 293.491 24.4316 293.491 21.9692C293.491 19.5067 291.495 17.5105 289.032 17.5105C286.57 17.5105 284.574 19.5067 284.574 21.9692C284.574 24.4316 286.57 26.4279 289.032 26.4279ZM289.095 319.604C291.2 318.325 291.869 315.582 290.59 313.478C289.311 311.374 286.569 310.704 284.464 311.983C272.404 319.313 272.404 331.485 283.206 345.962C284.679 347.936 287.473 348.342 289.446 346.87C291.42 345.397 291.826 342.603 290.353 340.63C282.33 329.877 282.33 323.715 289.095 319.604ZM252.279 349.788C251.184 347.583 248.508 346.683 246.303 347.778C244.097 348.874 243.197 351.55 244.293 353.755C248.521 362.269 247.143 368.632 242.1 371.676C237.002 374.754 229.386 373.725 223.466 368.351C221.643 366.696 218.823 366.832 217.168 368.655C215.513 370.478 215.649 373.298 217.472 374.953C226.216 382.891 238.115 384.498 246.708 379.311C255.976 373.716 258.462 362.237 252.279 349.788ZM240.114 353.181C240.072 350.719 238.042 348.757 235.58 348.799C233.118 348.841 231.156 350.871 231.198 353.333C231.221 354.709 231.074 355.718 230.825 356.343C230.708 356.636 230.651 356.703 230.598 356.731C229.993 357.054 228.142 356.879 225.109 355.653C222.826 354.73 220.227 355.832 219.304 358.115C218.381 360.398 219.483 362.997 221.766 363.92C232.787 368.375 240.304 364.358 240.114 353.181Z" fill="#2D1F38"/>
<path fill-rule="evenodd" clip-rule="evenodd" d="M169.29 63.8451C179.775 65.851 187.698 75.0696 187.698 86.1388C187.698 98.6749 177.536 108.837 164.999 108.837C152.463 108.837 142.301 98.6749 142.301 86.1388C142.301 75.0696 150.224 65.851 160.709 63.8451C160.599 63.4586 160.541 63.0509 160.541 62.6294V55.3334C160.541 52.871 162.537 50.8747 164.999 50.8747C167.462 50.8747 169.458 52.871 169.458 55.3334V62.6294C169.458 63.0509 169.4 63.4586 169.29 63.8451ZM152.101 91.003C153.887 85.5883 158.987 81.6801 164.999 81.6801C171.012 81.6801 176.112 85.5883 177.898 91.003C178.469 89.4904 178.781 87.8511 178.781 86.1388C178.781 78.5276 172.611 72.3574 164.999 72.3574C157.388 72.3574 151.218 78.5276 151.218 86.1388C151.218 87.8511 151.53 89.4904 152.101 91.003ZM164.999 41.9574C162.537 41.9574 160.541 39.9612 160.541 37.4987C160.541 35.0363 162.537 33.04 164.999 33.04C167.462 33.04 169.458 35.0363 169.458 37.4987C169.458 39.9612 167.462 41.9574 164.999 41.9574ZM164.999 99.9202C167.574 99.9202 169.661 97.8332 169.661 95.2588C169.661 92.6844 167.574 90.5975 164.999 90.5975C162.425 90.5975 160.338 92.6844 160.338 95.2588C160.338 97.8332 162.425 99.9202 164.999 99.9202ZM164.999 131.942C167.462 131.942 169.458 133.938 169.458 136.4V144.507C169.458 146.969 167.462 148.966 164.999 148.966C162.537 148.966 160.541 146.969 160.541 144.507V136.4C160.541 133.938 162.537 131.942 164.999 131.942ZM164.999 310.288C167.462 310.288 169.458 312.285 169.458 314.747V330.961C169.458 333.423 167.462 335.419 164.999 335.419C162.537 335.419 160.541 333.423 160.541 330.961V314.747C160.541 312.285 162.537 310.288 164.999 310.288Z" fill="#2D1F38"/>
</svg>
