<svg width="30" height="30" viewBox="0 0 30 30" fill="none" xmlns="http://www.w3.org/2000/svg">
<path d="M27 0H3C1.35 0 0 1.35 0 3V27C0 28.65 1.35 30 3 30H27C28.65 30 30 28.65 30 27V3C30 1.35 28.65 0 27 0ZM9 23.25C9 24.4926 7.99264 25.5 6.75 25.5C5.50736 25.5 4.5 24.4926 4.5 23.25V14.25C4.5 13.0074 5.50736 12 6.75 12C7.99264 12 9 13.0074 9 14.25V23.25ZM6.75 9.45C5.25 9.45 4.05 8.25 4.05 6.75C4.05 5.25 5.25 4.05 6.75 4.05C8.25 4.05 9.45 5.25 9.45 6.75C9.45 8.25 8.25 9.45 6.75 9.45ZM25.5 23.25C25.5 24.4926 24.4926 25.5 23.25 25.5C22.0074 25.5 21 24.4926 21 23.25V17.55C21 16.3501 19.95 15.3 18.75 15.3C17.55 15.3 16.5 16.3501 16.5 17.55V23.25C16.5 24.4926 15.4926 25.5 14.25 25.5C13.0074 25.5 12 24.4926 12 23.25V14.25C12 13.0074 13.0074 12 14.25 12H16.0988C16.3204 12 16.5 12.1796 16.5 12.4012C16.5 12.8042 17.1245 13.0238 17.4402 12.7732C18.2606 12.122 19.3256 11.7 20.25 11.7C23.1 11.7 25.5 14.1 25.5 16.95V23.25Z" fill="black"/>
</svg>
