<svg width="146" height="150" viewBox="0 0 146 150" fill="none" xmlns="http://www.w3.org/2000/svg">
<path fill-rule="evenodd" clip-rule="evenodd" d="M13.9216 19.204C8.15677 19.204 3.48853 23.8742 3.48853 29.6391V99.2128H142.638V29.6391C142.638 23.8742 137.964 19.204 132.201 19.204H13.9216Z" fill="white"/>
<path fill-rule="evenodd" clip-rule="evenodd" d="M3.48853 99.2128V107.753C3.48853 113.522 8.15677 118.19 13.9216 118.19H132.201C137.964 118.19 142.638 113.522 142.638 107.753V99.2128H3.48853Z" fill="black"/>
<path fill-rule="evenodd" clip-rule="evenodd" d="M114.174 19.2041V70.7514C114.174 70.7514 94.4613 61.1595 73.062 70.7514V7.5021C93.6181 -3.09317 114.174 7.5021 114.174 7.5021V19.2041Z" fill="#CAB1FF"/>
<path fill-rule="evenodd" clip-rule="evenodd" d="M73.0622 7.5021V70.7514C51.6608 61.1595 31.948 70.7514 31.948 70.7514V7.5021C31.948 7.5021 52.5041 -3.09317 73.0622 7.5021Z" fill="white"/>
<path fill-rule="evenodd" clip-rule="evenodd" d="M123.663 127.676C127.153 127.676 129.987 130.508 129.987 134.003C129.987 137.499 127.153 140.329 123.663 140.329C120.168 140.329 117.336 137.499 117.336 134.003C117.336 130.508 120.168 127.676 123.663 127.676Z" fill="#CAB1FF"/>
<path fill-rule="evenodd" clip-rule="evenodd" d="M19.2993 134.003C22.7898 134.003 25.6236 136.834 25.6236 140.329C25.6236 143.822 22.7898 146.655 19.2993 146.655C15.8047 146.655 12.9729 143.822 12.9729 140.329C12.9729 136.834 15.8047 134.003 19.2993 134.003Z" fill="#CAB1FF"/>
<path fill-rule="evenodd" clip-rule="evenodd" d="M126.825 105.539C128.57 105.539 129.987 106.958 129.987 108.703C129.987 110.449 128.57 111.866 126.825 111.866C125.075 111.866 123.663 110.449 123.663 108.703C123.663 106.958 125.075 105.539 126.825 105.539Z" fill="white"/>
<path fill-rule="evenodd" clip-rule="evenodd" d="M117.336 105.539C119.084 105.539 120.501 106.958 120.501 108.703C120.501 110.449 119.084 111.866 117.336 111.866C115.587 111.866 114.174 110.449 114.174 108.703C114.174 106.958 115.587 105.539 117.336 105.539Z" fill="white"/>
<path fill-rule="evenodd" clip-rule="evenodd" d="M107.85 105.539C109.595 105.539 111.012 106.958 111.012 108.703C111.012 110.449 109.595 111.866 107.85 111.866C106.101 111.866 104.688 110.449 104.688 108.703C104.688 106.958 106.101 105.539 107.85 105.539Z" fill="white"/>
<path fill-rule="evenodd" clip-rule="evenodd" d="M101.523 127.676C103.271 127.676 104.688 129.095 104.688 130.841C104.688 132.588 103.271 134.003 101.523 134.003C99.7762 134.003 98.3613 132.588 98.3613 130.841C98.3613 129.095 99.7762 127.676 101.523 127.676Z" fill="#0A0B09"/>
<path fill-rule="evenodd" clip-rule="evenodd" d="M85.7127 83.4041C87.458 83.4041 88.8749 84.8209 88.8749 86.5642C88.8749 88.3115 87.458 89.7284 85.7127 89.7284C83.9634 89.7284 82.5505 88.3115 82.5505 86.5642C82.5505 84.8209 83.9634 83.4041 85.7127 83.4041Z" fill="#0A0B09"/>
<path fill-rule="evenodd" clip-rule="evenodd" d="M76.2242 83.4041C77.9694 83.4041 79.3884 84.8209 79.3884 86.5642C79.3884 88.3115 77.9694 89.7284 76.2242 89.7284C74.4749 89.7284 73.062 88.3115 73.062 86.5642C73.062 84.8209 74.4749 83.4041 76.2242 83.4041Z" fill="#0A0B09"/>
<path fill-rule="evenodd" clip-rule="evenodd" d="M35.1122 124.516C36.8575 124.516 38.2743 125.933 38.2743 127.676C38.2743 129.424 36.8575 130.841 35.1122 130.841C33.3629 130.841 31.948 129.424 31.948 127.676C31.948 125.933 33.3629 124.516 35.1122 124.516Z" fill="#0A0B09"/>
<path fill-rule="evenodd" clip-rule="evenodd" d="M142.638 100.798H3.48838C2.61271 100.798 1.90527 100.091 1.90527 99.2128C1.90527 98.3412 2.61271 97.6338 3.48838 97.6338H142.638C143.511 97.6338 144.219 98.3412 144.219 99.2128C144.219 100.091 143.511 100.798 142.638 100.798Z" fill="#0A0B09"/>
<path fill-rule="evenodd" clip-rule="evenodd" d="M88.8748 145.072C87.9991 145.072 87.2937 144.365 87.2937 143.491V118.19C87.2937 117.318 87.9991 116.609 88.8748 116.609C89.7464 116.609 90.4559 117.318 90.4559 118.19V143.491C90.4559 144.365 89.7464 145.072 88.8748 145.072Z" fill="#0A0B09"/>
<path fill-rule="evenodd" clip-rule="evenodd" d="M57.249 145.072C56.3754 145.072 55.668 144.365 55.668 143.491V118.19C55.668 117.318 56.3754 116.609 57.249 116.609C58.1227 116.609 58.8301 117.318 58.8301 118.19V143.491C58.8301 144.365 58.1227 145.072 57.249 145.072Z" fill="#0A0B09"/>
<path fill-rule="evenodd" clip-rule="evenodd" d="M98.3612 145.072H47.7605C46.8889 145.072 46.1794 144.365 46.1794 143.491C46.1794 142.616 46.8889 141.91 47.7605 141.91H98.3612C99.2348 141.91 99.9443 142.616 99.9443 143.491C99.9443 144.365 99.2348 145.072 98.3612 145.072Z" fill="#0A0B09"/>
<path fill-rule="evenodd" clip-rule="evenodd" d="M66.7378 145.072C65.8642 145.072 65.1567 144.365 65.1567 143.491V130.841C65.1567 129.969 65.8642 129.261 66.7378 129.261C67.6094 129.261 68.3169 129.969 68.3169 130.841V143.491C68.3169 144.365 67.6094 145.072 66.7378 145.072Z" fill="#0A0B09"/>
<path fill-rule="evenodd" clip-rule="evenodd" d="M79.3885 145.072C78.5128 145.072 77.8054 144.365 77.8054 143.491V130.841C77.8054 129.969 78.5128 129.261 79.3885 129.261C80.2601 129.261 80.9676 129.969 80.9676 130.841V143.491C80.9676 144.365 80.2601 145.072 79.3885 145.072Z" fill="#0A0B09"/>
<path fill-rule="evenodd" clip-rule="evenodd" d="M132.201 119.771H13.9215C7.29717 119.771 1.90527 114.381 1.90527 107.753V29.6391C1.90527 23.0127 7.29717 17.6208 13.9215 17.6208H31.9478C32.8215 17.6208 33.5289 18.3283 33.5289 19.204C33.5289 20.0776 32.8215 20.783 31.9478 20.783H13.9215C9.04041 20.783 5.06744 24.756 5.06744 29.6391V107.753C5.06744 112.636 9.04041 116.609 13.9215 116.609H132.201C137.084 116.609 141.055 112.636 141.055 107.753V29.6391C141.055 24.756 137.084 20.783 132.201 20.783H114.174C113.301 20.783 112.593 20.0776 112.593 19.204C112.593 18.3283 113.301 17.6208 114.174 17.6208H132.201C138.827 17.6208 144.219 23.0127 144.219 29.6391V107.753C144.219 114.381 138.827 119.771 132.201 119.771Z" fill="#0A0B09"/>
<path fill-rule="evenodd" clip-rule="evenodd" d="M73.0622 72.3324C72.8453 72.3324 72.6244 72.2878 72.4156 72.1946C51.9771 63.0364 32.8298 72.081 32.6413 72.1743C32.1487 72.4135 31.573 72.381 31.1109 72.0891C30.6487 71.8013 30.3669 71.2966 30.3669 70.7513V7.50199C30.3669 6.91009 30.6973 6.36888 31.2244 6.09726C31.4433 5.98374 36.671 3.32226 44.5278 1.97023C51.8007 0.721579 62.7771 0.423606 73.7859 6.09726C74.5622 6.49658 74.8703 7.44928 74.4669 8.22766C74.0676 9.00199 73.1149 9.30604 72.3386 8.90671C62.1467 3.65469 51.9386 3.92023 45.1703 5.06955C39.5352 6.02428 35.2723 7.73307 33.5291 8.50739V68.3817C35.7487 67.5425 39.4764 66.3425 44.2338 65.5905C51.3832 64.4675 62.2987 64.1959 73.7088 69.3101C74.5034 69.6648 74.8622 70.6013 74.5034 71.3979C74.2399 71.9858 73.6642 72.3324 73.0622 72.3324Z" fill="#0A0B09"/>
<path fill-rule="evenodd" clip-rule="evenodd" d="M93.231 64.9074C102.097 64.9074 109.155 67.0763 112.593 68.3777V8.50743C110.094 7.40067 102.399 4.37432 92.856 4.37432C86.3695 4.37432 80.2458 5.75473 74.6431 8.47905V68.3736C80.5195 66.073 86.7587 64.9074 93.231 64.9074ZM73.062 72.3324C72.762 72.3324 72.4641 72.2493 72.2026 72.0811C71.7526 71.7872 71.481 71.2865 71.481 70.7514V7.50202C71.481 6.91013 71.8114 6.36892 72.3384 6.09729C78.6262 2.85608 85.5303 1.21216 92.856 1.21216C105.278 1.21216 114.511 5.89662 114.898 6.09729C115.425 6.36892 115.755 6.91013 115.755 7.50202V70.7514C115.755 71.2966 115.476 71.8054 115.013 72.0932C114.551 72.3811 113.976 72.4135 113.483 72.1743C113.4 72.1318 104.87 68.0676 93.231 68.0676C86.3816 68.0676 79.8141 69.4601 73.7087 72.1946C73.5019 72.2878 73.281 72.3324 73.062 72.3324Z" fill="#0A0B09"/>
<path fill-rule="evenodd" clip-rule="evenodd" d="M60.4111 24.896L60.101 24.8656L44.2882 21.7034C43.4328 21.5311 42.8753 20.698 43.0476 19.8426C43.2199 18.9852 44.053 18.4318 44.9084 18.6021L60.7213 21.7642C61.5767 21.9345 62.1321 22.7676 61.9618 23.623C61.8118 24.3771 61.151 24.896 60.4111 24.896Z" fill="#0A0B09"/>
<path fill-rule="evenodd" clip-rule="evenodd" d="M60.4111 34.3844L60.101 34.3519L44.2882 31.1898C43.4328 31.0175 42.8753 30.1844 43.0476 29.331C43.2199 28.4715 44.053 27.9202 44.9084 28.0884L60.7213 31.2506C61.5767 31.4209 62.1321 32.256 61.9618 33.1114C61.8118 33.8634 61.151 34.3844 60.4111 34.3844Z" fill="#0A0B09"/>
<path fill-rule="evenodd" clip-rule="evenodd" d="M60.4111 43.871L60.101 43.8406L44.2882 40.6744C43.4328 40.5061 42.8753 39.673 43.0476 38.8156C43.2199 37.9602 44.053 37.4088 44.9084 37.5771L60.7213 40.7392C61.5767 40.9115 62.1321 41.7426 61.9618 42.6001C61.8118 43.3501 61.151 43.871 60.4111 43.871Z" fill="#0A0B09"/>
<path fill-rule="evenodd" clip-rule="evenodd" d="M60.4111 53.3574L60.101 53.327L44.2882 50.1648C43.4328 49.9926 42.8753 49.1615 43.0476 48.302C43.2199 47.4466 44.053 46.8953 44.9084 47.0655L60.7213 50.2257C61.5767 50.3959 62.1321 51.227 61.9618 52.0865C61.8118 52.8385 61.151 53.3574 60.4111 53.3574Z" fill="#0A0B09"/>
<path fill-rule="evenodd" clip-rule="evenodd" d="M85.7106 24.8959C84.9707 24.8959 84.312 24.377 84.162 23.623C83.9897 22.7676 84.5451 21.9344 85.4005 21.7642L101.215 18.602C102.073 18.4297 102.906 18.9851 103.074 19.8426C103.246 20.698 102.691 21.5311 101.834 21.7034L86.0228 24.8655L85.7106 24.8959Z" fill="#0A0B09"/>
<path fill-rule="evenodd" clip-rule="evenodd" d="M85.7106 34.3844C84.9707 34.3844 84.312 33.8635 84.162 33.1115C83.9897 32.2561 84.5451 31.4209 85.4005 31.2507L101.215 28.0885C102.073 27.9182 102.906 28.4716 103.074 29.3311C103.246 30.1844 102.691 31.0176 101.834 31.1899L86.0228 34.352L85.7106 34.3844Z" fill="#0A0B09"/>
<path fill-rule="evenodd" clip-rule="evenodd" d="M85.7106 43.871C84.9707 43.871 84.312 43.3501 84.162 42.6001C83.9897 41.7426 84.5451 40.9115 85.4005 40.7392L101.215 37.5771C102.073 37.4068 102.906 37.9622 103.074 38.8156C103.246 39.673 102.691 40.5061 101.834 40.6744L86.0228 43.8406L85.7106 43.871Z" fill="#0A0B09"/>
<path fill-rule="evenodd" clip-rule="evenodd" d="M85.7106 53.3574C84.9707 53.3574 84.312 52.8385 84.162 52.0865C83.9897 51.227 84.5451 50.3959 85.4005 50.2257L101.215 47.0655C102.073 46.8953 102.906 47.4466 103.074 48.302C103.246 49.1615 102.691 49.9926 101.834 50.1648L86.0228 53.327L85.7106 53.3574Z" fill="#0A0B09"/>
<path fill-rule="evenodd" clip-rule="evenodd" d="M66.7377 88.1473H3.48838C2.61271 88.1473 1.90527 87.4398 1.90527 86.5642C1.90527 85.6885 2.61271 84.9851 3.48838 84.9851H66.7377C67.6093 84.9851 68.3168 85.6885 68.3168 86.5642C68.3168 87.4398 67.6093 88.1473 66.7377 88.1473Z" fill="#0A0B09"/>
<path fill-rule="evenodd" clip-rule="evenodd" d="M19.299 135.584C16.6821 135.584 14.5557 137.712 14.5557 140.329C14.5557 142.946 16.6821 145.072 19.299 145.072C21.9158 145.072 24.0422 142.946 24.0422 140.329C24.0422 137.712 21.9158 135.584 19.299 135.584ZM19.299 148.234C14.9388 148.234 11.3936 144.685 11.3936 140.329C11.3936 135.969 14.9388 132.422 19.299 132.422C23.6591 132.422 27.2044 135.969 27.2044 140.329C27.2044 144.685 23.6591 148.234 19.299 148.234Z" fill="#0A0B09"/>
<path fill-rule="evenodd" clip-rule="evenodd" d="M123.663 129.261C121.046 129.261 118.92 131.388 118.92 134.003C118.92 136.62 121.046 138.746 123.663 138.746C126.278 138.746 128.406 136.62 128.406 134.003C128.406 131.388 126.278 129.261 123.663 129.261ZM123.663 141.91C119.303 141.91 115.755 138.363 115.755 134.003C115.755 129.643 119.303 126.097 123.663 126.097C128.021 126.097 131.568 129.643 131.568 134.003C131.568 138.363 128.021 141.91 123.663 141.91Z" fill="#0A0B09"/>
</svg>
