<svg width="146" height="150" viewBox="0 0 146 150" fill="none" xmlns="http://www.w3.org/2000/svg">
<path fill-rule="evenodd" clip-rule="evenodd" d="M134.793 101.282C138.714 101.282 141.884 104.459 141.884 108.377C141.884 112.293 138.714 115.468 134.793 115.468C130.882 115.468 127.702 112.293 127.702 108.377C127.702 104.459 130.882 101.282 134.793 101.282Z" fill="white"/>
<path fill-rule="evenodd" clip-rule="evenodd" d="M110.859 68.4203V97.4908L70.968 121.427V93.1044L110.859 68.4203Z" fill="black"/>
<path fill-rule="evenodd" clip-rule="evenodd" d="M70.9679 93.1044V121.427L31.0747 97.4908V68.4203L70.9679 93.1044Z" fill="black"/>
<path fill-rule="evenodd" clip-rule="evenodd" d="M134.793 53.6136L70.9683 93.1045L7.14331 53.6136L70.9683 14.1227L134.793 53.6136Z" fill="white"/>
<path fill-rule="evenodd" clip-rule="evenodd" d="M113.518 2C117.438 2 120.609 5.17273 120.609 9.09091C120.609 13.0114 117.438 16.1818 113.518 16.1818C109.604 16.1818 106.425 13.0114 106.425 9.09091C106.425 5.17273 109.604 2 113.518 2Z" fill="#CAB1FF"/>
<path fill-rule="evenodd" clip-rule="evenodd" d="M125.932 129.65C130.825 129.65 134.793 133.618 134.793 138.516C134.793 143.411 130.825 147.379 125.932 147.379C121.036 147.379 117.064 143.411 117.064 138.516C117.064 133.618 121.036 129.65 125.932 129.65Z" fill="#CAB1FF"/>
<path fill-rule="evenodd" clip-rule="evenodd" d="M10.6911 122.559C14.607 122.559 17.782 125.732 17.782 129.65C17.782 133.57 14.607 136.743 10.6911 136.743C6.77517 136.743 3.5979 133.57 3.5979 129.65C3.5979 125.732 6.77517 122.559 10.6911 122.559Z" fill="#CAB1FF"/>
<path fill-rule="evenodd" clip-rule="evenodd" d="M138.338 23.2749C140.295 23.2749 141.884 24.8635 141.884 26.8204C141.884 28.7772 140.295 30.3658 138.338 30.3658C136.382 30.3658 134.793 28.7772 134.793 26.8204C134.793 24.8635 136.382 23.2749 138.338 23.2749Z" fill="#0A0B09"/>
<path fill-rule="evenodd" clip-rule="evenodd" d="M106.425 129.65C108.387 129.65 109.975 131.239 109.975 133.193C109.975 135.154 108.387 136.743 106.425 136.743C104.473 136.743 102.884 135.154 102.884 133.193C102.884 131.239 104.473 129.65 106.425 129.65Z" fill="#0A0B09"/>
<path fill-rule="evenodd" clip-rule="evenodd" d="M35.5116 5.54541C37.473 5.54541 39.0593 7.13405 39.0593 9.09087C39.0593 11.0477 37.473 12.6363 35.5116 12.6363C33.5548 12.6363 31.9639 11.0477 31.9639 9.09087C31.9639 7.13405 33.5548 5.54541 35.5116 5.54541Z" fill="#0A0B09"/>
<path fill-rule="evenodd" clip-rule="evenodd" d="M14.2361 94.193C16.1952 94.193 17.7816 95.7816 17.7816 97.7384C17.7816 99.6953 16.1952 101.282 14.2361 101.282C12.2793 101.282 10.6907 99.6953 10.6907 97.7384C10.6907 95.7816 12.2793 94.193 14.2361 94.193Z" fill="#0A0B09"/>
<path fill-rule="evenodd" clip-rule="evenodd" d="M3.5977 26.8203C5.55679 26.8203 7.14315 28.4089 7.14315 30.3658C7.14315 32.3226 5.55679 33.909 3.5977 33.909C1.64088 33.909 0.0522461 32.3226 0.0522461 30.3658C0.0522461 28.4089 1.64088 26.8203 3.5977 26.8203Z" fill="#0A0B09"/>
<path fill-rule="evenodd" clip-rule="evenodd" d="M70.9681 123.202C70.659 123.202 70.3431 123.12 70.0545 122.948L30.1635 99.0135C29.6317 98.6954 29.3044 98.1181 29.3044 97.4908V68.4204C29.3044 67.4454 30.0999 66.6499 31.0749 66.6499C32.0544 66.6499 32.8522 67.4454 32.8522 68.4204V96.4885L71.8817 119.907C72.7204 120.411 72.9931 121.5 72.4908 122.341C72.159 122.893 71.5704 123.202 70.9681 123.202Z" fill="#0A0B09"/>
<path fill-rule="evenodd" clip-rule="evenodd" d="M70.9683 123.2C70.6706 123.2 70.366 123.125 70.0956 122.97C69.541 122.657 69.1956 122.068 69.1956 121.427V93.1044C69.1956 92.1249 69.9887 91.3317 70.9683 91.3317C71.9478 91.3317 72.7433 92.1249 72.7433 93.1044V118.298L109.086 96.4885V68.4204C109.086 67.4454 109.882 66.6499 110.859 66.6499C111.839 66.6499 112.634 67.4454 112.634 68.4204V97.4908C112.634 98.1181 112.307 98.6954 111.773 99.0135L71.8819 122.948C71.6001 123.116 71.2865 123.2 70.9683 123.2Z" fill="#0A0B09"/>
<path fill-rule="evenodd" clip-rule="evenodd" d="M134.793 103.057C133.816 103.057 133.023 102.261 133.023 101.282V55.384H70.9683C69.9887 55.384 69.1956 54.5908 69.1956 53.6135C69.1956 52.634 69.9887 51.8408 70.9683 51.8408H134.793C135.773 51.8408 136.568 52.634 136.568 53.6135V101.282C136.568 102.261 135.773 103.057 134.793 103.057Z" fill="#0A0B09"/>
<path fill-rule="evenodd" clip-rule="evenodd" d="M134.793 103.057C131.861 103.057 129.475 105.443 129.475 108.377C129.475 111.311 131.861 113.693 134.793 113.693C137.727 113.693 140.111 111.311 140.111 108.377C140.111 105.443 137.727 103.057 134.793 103.057ZM134.793 117.241C129.907 117.241 125.932 113.264 125.932 108.377C125.932 103.484 129.907 99.509 134.793 99.509C139.684 99.509 143.659 103.484 143.659 108.377C143.659 113.264 139.684 117.241 134.793 117.241Z" fill="#0A0B09"/>
<path fill-rule="evenodd" clip-rule="evenodd" d="M10.6909 124.332C7.75677 124.332 5.37041 126.718 5.37041 129.65C5.37041 132.582 7.75677 134.97 10.6909 134.97C13.6227 134.97 16.009 132.582 16.009 129.65C16.009 126.718 13.6227 124.332 10.6909 124.332ZM10.6909 138.516C5.79995 138.516 1.82495 134.536 1.82495 129.65C1.82495 124.764 5.79995 120.786 10.6909 120.786C15.5772 120.786 19.5545 124.764 19.5545 129.65C19.5545 134.536 15.5772 138.516 10.6909 138.516Z" fill="#0A0B09"/>
<path fill-rule="evenodd" clip-rule="evenodd" d="M113.518 3.77263C110.586 3.77263 108.2 6.15899 108.2 9.09081C108.2 12.0226 110.586 14.4113 113.518 14.4113C116.45 14.4113 118.839 12.0226 118.839 9.09081C118.839 6.15899 116.45 3.77263 113.518 3.77263ZM113.518 17.9544C108.632 17.9544 104.657 13.9794 104.657 9.09081C104.657 4.20445 108.632 0.227173 113.518 0.227173C118.407 0.227173 122.386 4.20445 122.386 9.09081C122.386 13.9794 118.407 17.9544 113.518 17.9544Z" fill="#0A0B09"/>
<path fill-rule="evenodd" clip-rule="evenodd" d="M125.932 131.423C122.018 131.423 118.839 134.604 118.839 138.516C118.839 142.427 122.018 145.607 125.932 145.607C129.841 145.607 133.023 142.427 133.023 138.516C133.023 134.604 129.841 131.423 125.932 131.423ZM125.932 149.154C120.064 149.154 115.293 144.379 115.293 138.516C115.293 132.65 120.064 127.877 125.932 127.877C131.795 127.877 136.568 132.65 136.568 138.516C136.568 144.379 131.795 149.154 125.932 149.154Z" fill="#0A0B09"/>
<path fill-rule="evenodd" clip-rule="evenodd" d="M10.5138 53.6136L70.9683 91.0204L131.427 53.6136L70.9683 16.2068L10.5138 53.6136ZM70.9683 94.8749C70.6456 94.8749 70.3206 94.7863 70.0365 94.6113L30.1456 69.934L6.21151 55.1204C5.68879 54.7931 5.37061 54.2272 5.37061 53.6136C5.37061 52.9977 5.68879 52.4272 6.21151 52.1045L70.0365 12.6136C70.607 12.2613 71.332 12.2613 71.9024 12.6136L135.727 52.1045C136.25 52.4272 136.568 52.9977 136.568 53.6136C136.568 54.2272 136.25 54.7931 135.727 55.1204L111.793 69.934L71.9024 94.6113C71.6161 94.7863 71.2933 94.8749 70.9683 94.8749Z" fill="#0A0B09"/>
</svg>
