<svg width="246" height="164" viewBox="0 0 246 164" fill="none" xmlns="http://www.w3.org/2000/svg">
<path fill-rule="evenodd" clip-rule="evenodd" d="M80.0161 3.96744V147.468L83.3226 138.871H195.081V117.048L185.162 109.113L165.984 115.065L143.5 107.129L131.597 89.2742C131.597 89.2742 132.258 64.8063 131.597 66.1289H130.245C130.245 66.129 130.245 66.1291 130.245 66.1291H104.84C103.183 66.1291 101.84 64.786 101.84 63.1291V30.7742C101.84 29.1173 103.183 27.7742 104.84 27.7742H170.259C171.916 27.7742 173.259 29.1173 173.259 30.7742V41.8521C172.821 41.7564 172.38 41.6684 171.936 41.5884V42.9837L185.162 47.6127L195.081 58.8547V1.32227L80.0161 3.96744Z" fill="white"/>
<path d="M195.876 157.255H87.9525C81.8686 157.255 76.9751 152.362 76.9751 146.278V2.38064C76.9751 1.05805 78.0331 0 79.3557 0H195.876C197.198 0 198.256 1.05805 198.256 2.38064V58.855H193.363V4.76131H81.6041V146.278C81.6041 149.717 84.3816 152.494 87.8203 152.494H193.363V117.313H198.256V154.875C198.388 156.197 197.198 157.255 195.876 157.255Z" fill="black"/>
<path d="M77.2385 33.1967C72.6095 33.1967 68.7739 29.3612 68.7739 24.7322C68.7739 20.1031 72.6095 16.2676 77.2385 16.2676H81.603C86.2321 16.2676 90.0676 20.1031 90.0676 24.7322H85.174C85.174 22.7483 83.5869 21.1612 81.603 21.1612H77.2385C75.2546 21.1612 73.6675 22.7483 73.6675 24.7322C73.6675 26.716 75.2546 28.3031 77.2385 28.3031V33.1967V33.1967Z" fill="black"/>
<path d="M77.2385 56.6066C72.6095 56.6066 68.7739 52.7711 68.7739 48.142C68.7739 43.513 72.6095 39.6775 77.2385 39.6775H81.603C86.2321 39.6775 90.0676 43.513 90.0676 48.142H85.174C85.174 46.1581 83.5869 44.5711 81.603 44.5711H77.2385C75.2546 44.5711 73.6675 46.1581 73.6675 48.142C73.6675 50.1259 75.2546 51.713 77.2385 51.713V56.6066V56.6066Z" fill="black"/>
<path d="M77.2385 80.1488C72.6095 80.1488 68.7739 76.3134 68.7739 71.6843C68.7739 67.0553 72.6095 63.2197 77.2385 63.2197H81.603C86.2321 63.2197 90.0676 67.0553 90.0676 71.6843H85.174C85.174 69.7004 83.5869 68.1133 81.603 68.1133H77.2385C75.2546 68.1133 73.6675 69.7004 73.6675 71.6843C73.6675 73.6682 75.2546 75.2553 77.2385 75.2553V80.1488V80.1488Z" fill="black"/>
<path d="M77.2385 103.558C72.6095 103.558 68.7739 99.723 68.7739 95.0939C68.7739 90.4649 72.6095 86.6294 77.2385 86.6294H81.603C86.2321 86.6294 90.0676 90.4649 90.0676 95.0939H85.174C85.174 93.1101 83.5869 91.523 81.603 91.523H77.2385C75.2546 91.523 73.6675 93.1101 73.6675 95.0939C73.6675 97.0778 75.2546 98.6649 77.2385 98.6649V103.558V103.558Z" fill="black"/>
<path d="M77.2385 126.968C72.6095 126.968 68.7739 123.133 68.7739 118.503C68.7739 113.874 72.6095 110.039 77.2385 110.039H81.603C86.2321 110.039 90.0676 113.874 90.0676 118.503H85.174C85.174 116.52 83.5869 114.932 81.603 114.932H77.2385C75.2546 114.932 73.6675 116.52 73.6675 118.503C73.6675 120.487 75.2546 122.074 77.2385 122.074V126.968V126.968Z" fill="black"/>
<path d="M175.903 43.6453V33.4194C175.903 31.7626 174.56 30.4194 172.903 30.4194H107.484C105.827 30.4194 104.484 31.7626 104.484 33.4194V65.7744C104.484 67.4313 105.827 68.7744 107.484 68.7744H132.258" stroke="black" stroke-width="4"/>
<path d="M195.876 157.255H87.9525C81.8686 157.255 76.9751 152.362 76.9751 146.278C76.9751 140.194 81.8686 135.301 87.9525 135.301H195.876C197.198 135.301 198.256 136.359 198.256 137.681V154.875C198.388 156.197 197.198 157.255 195.876 157.255ZM87.9525 140.062C84.5138 140.062 81.7364 142.839 81.7364 146.278C81.7364 149.717 84.5138 152.494 87.9525 152.494H193.495V140.062H87.9525Z" fill="black"/>
<path d="M92.5806 146.278C92.5806 151.965 92.5806 157.785 92.5806 163.472C95.358 160.959 98.2677 158.975 101.177 157.388C104.087 158.975 106.997 160.959 109.774 163.472C109.774 157.785 109.774 151.965 109.774 146.278H92.5806Z" fill="#CAB1FF"/>
<path d="M165.848 105.697C180.676 105.697 192.697 93.6765 192.697 78.8485C192.697 64.0205 180.676 52 165.848 52C151.02 52 139 64.0205 139 78.8485C139 93.6765 151.02 105.697 165.848 105.697Z" fill="#CAB1FF"/>
<path d="M162.875 83.6136V83.2273C162.883 81.9015 163 80.8447 163.227 80.0568C163.462 79.2689 163.803 78.6326 164.25 78.1477C164.697 77.6629 165.235 77.2235 165.864 76.8295C166.333 76.5265 166.754 76.2121 167.125 75.8864C167.496 75.5606 167.792 75.2008 168.011 74.8068C168.231 74.4053 168.341 73.9583 168.341 73.4659C168.341 72.9432 168.216 72.4848 167.966 72.0909C167.716 71.697 167.379 71.3939 166.955 71.1818C166.538 70.9697 166.076 70.8636 165.568 70.8636C165.076 70.8636 164.61 70.9735 164.17 71.1932C163.731 71.4053 163.371 71.7235 163.091 72.1477C162.811 72.5644 162.659 73.0833 162.636 73.7045H158C158.038 72.1894 158.402 70.9394 159.091 69.9545C159.78 68.9621 160.693 68.2235 161.83 67.7386C162.966 67.2462 164.22 67 165.591 67C167.098 67 168.432 67.25 169.591 67.75C170.75 68.2424 171.659 68.9583 172.318 69.8977C172.977 70.8371 173.307 71.9697 173.307 73.2955C173.307 74.1818 173.159 74.9697 172.864 75.6591C172.576 76.3409 172.17 76.947 171.648 77.4773C171.125 78 170.508 78.4735 169.795 78.8977C169.197 79.2538 168.705 79.625 168.318 80.0114C167.939 80.3977 167.655 80.8447 167.466 81.3523C167.284 81.8598 167.189 82.4848 167.182 83.2273V83.6136H162.875ZM165.125 90.8864C164.367 90.8864 163.72 90.6212 163.182 90.0909C162.652 89.553 162.39 88.9091 162.398 88.1591C162.39 87.4167 162.652 86.7803 163.182 86.25C163.72 85.7197 164.367 85.4545 165.125 85.4545C165.845 85.4545 166.477 85.7197 167.023 86.25C167.568 86.7803 167.845 87.4167 167.852 88.1591C167.845 88.6591 167.712 89.1174 167.455 89.5341C167.205 89.9432 166.875 90.2727 166.466 90.5227C166.057 90.7652 165.61 90.8864 165.125 90.8864Z" fill="black"/>
<path d="M217.565 138.607C215.184 138.607 213.068 137.681 211.349 136.094L186.352 111.097C180.4 114.8 173.523 116.784 166.381 116.784C156.197 116.784 146.674 112.816 139.533 105.674C132.391 98.5323 128.423 89.0097 128.423 78.8258C128.423 68.6419 132.391 59.1192 139.533 51.9773C146.674 44.8353 156.197 40.8676 166.381 40.8676C176.565 40.8676 186.088 44.8353 193.23 51.9773C205.794 64.5418 207.91 83.8516 198.652 98.6645L223.649 123.661C227.088 127.1 227.088 132.655 223.649 136.094C222.062 137.681 219.813 138.607 217.565 138.607ZM186.617 105.542C187.278 105.542 187.807 105.806 188.336 106.203L214.655 132.523C216.11 133.978 218.755 133.978 220.21 132.523C221.797 130.936 221.797 128.423 220.21 126.968L194.023 100.648C193.229 99.8549 193.097 98.5323 193.759 97.6065C202.884 84.3806 201.297 66.658 189.923 55.2837C183.707 49.0676 175.375 45.6289 166.513 45.6289C157.652 45.6289 149.32 49.0676 143.104 55.2837C136.887 61.4999 133.449 69.8322 133.449 78.6935C133.449 87.5548 136.887 95.8871 143.104 102.103C149.32 108.319 157.652 111.758 166.513 111.758C173.258 111.758 179.871 109.774 185.426 105.939C185.691 105.674 186.22 105.542 186.617 105.542Z" fill="black"/>
<path d="M244.678 9.25809C244.678 14.3712 240.533 18.5162 235.42 18.5162C230.307 18.5162 226.162 14.3712 226.162 9.25809C226.162 4.14499 230.307 0 235.42 0C240.533 0 244.678 4.14499 244.678 9.25809Z" fill="#CAB1FF"/>
<path fill-rule="evenodd" clip-rule="evenodd" d="M235.42 15.5162C238.876 15.5162 241.678 12.7143 241.678 9.25809C241.678 5.80184 238.876 3 235.42 3C231.964 3 229.162 5.80184 229.162 9.25809C229.162 12.7143 231.964 15.5162 235.42 15.5162ZM235.42 18.5162C240.533 18.5162 244.678 14.3712 244.678 9.25809C244.678 4.14499 240.533 0 235.42 0C230.307 0 226.162 4.14499 226.162 9.25809C226.162 14.3712 230.307 18.5162 235.42 18.5162Z" fill="black"/>
<path d="M21.1614 136.226C21.1614 142.07 16.4242 146.807 10.5807 146.807C4.73713 146.807 0 142.07 0 136.226C0 130.383 4.73713 125.645 10.5807 125.645C16.4242 125.645 21.1614 130.383 21.1614 136.226Z" fill="#CAB1FF"/>
<path fill-rule="evenodd" clip-rule="evenodd" d="M10.5807 143.807C14.7674 143.807 18.1614 140.413 18.1614 136.226C18.1614 132.039 14.7674 128.645 10.5807 128.645C6.39399 128.645 3 132.039 3 136.226C3 140.413 6.39399 143.807 10.5807 143.807ZM10.5807 146.807C16.4242 146.807 21.1614 142.07 21.1614 136.226C21.1614 130.383 16.4242 125.645 10.5807 125.645C4.73713 125.645 0 130.383 0 136.226C0 142.07 4.73713 146.807 10.5807 146.807Z" fill="black"/>
<circle cx="20.5006" cy="110.436" r="4.62905" fill="black"/>
<circle cx="45.6295" cy="122.339" r="4.62905" fill="black"/>
<circle cx="221.533" cy="73.4035" r="4.62905" fill="black"/>
<circle cx="214.92" cy="32.4032" r="4.62905" fill="black"/>
<circle cx="241.371" cy="54.8873" r="4.62905" fill="black"/>
<circle cx="40.339" cy="66.7902" r="4.62905" fill="black"/>
</svg>
