<svg width="121" height="130" viewBox="0 0 121 130" fill="none" xmlns="http://www.w3.org/2000/svg">
<path fill-rule="evenodd" clip-rule="evenodd" d="M101.499 90.2869L107.648 112.825L85.1111 106.68L89.2079 94.3856L101.499 90.2869Z" fill="white"/>
<path fill-rule="evenodd" clip-rule="evenodd" d="M33.8893 22.6757L40.0346 28.8247L23.6453 45.2158H23.6434L17.5 39.0668L33.8893 22.6757Z" fill="white"/>
<path fill-rule="evenodd" clip-rule="evenodd" d="M33.8895 22.6757L17.5002 39.0668L15.4499 37.0184C10.9259 32.4925 10.9259 25.1531 15.4499 20.6273C17.7137 18.3653 20.6833 17.2343 23.6455 17.2343C26.6095 17.2343 29.579 18.3653 31.8429 20.6273L33.8895 22.6757Z" fill="#CAB1FF"/>
<path fill-rule="evenodd" clip-rule="evenodd" d="M89.2082 94.3856L85.1113 106.68L23.6455 45.2159L31.8429 37.0184L89.2082 94.3856Z" fill="#2B3241"/>
<path fill-rule="evenodd" clip-rule="evenodd" d="M79.3169 68.1014L101.499 90.2868L89.2081 94.3856L31.8428 37.0184L40.0346 28.8247L79.3169 68.1014Z" fill="#1F2530"/>
<path fill-rule="evenodd" clip-rule="evenodd" d="M87.5088 14.8311L95.708 6.63928L118.244 29.1739L79.3169 68.1014L56.7749 45.5669L62.9258 39.4216L69.0692 33.2726L81.3635 20.9801L87.5088 14.8311Z" fill="white"/>
<path fill-rule="evenodd" clip-rule="evenodd" d="M34.244 68.1052L40.3892 61.9543L62.9257 84.4926L23.9981 123.42L1.46167 100.884L15.8044 86.5466L21.9497 80.3958L34.244 68.1052Z" fill="#CAB1FF"/>
<path fill-rule="evenodd" clip-rule="evenodd" d="M111 56.7766C114.998 56.7766 118.244 60.0192 118.244 64.0232C118.244 68.0253 114.998 71.266 111 71.266C106.999 71.266 103.757 68.0253 103.757 64.0232C103.757 60.0192 106.999 56.7766 111 56.7766Z" fill="#CAB1FF"/>
<path fill-rule="evenodd" clip-rule="evenodd" d="M63.1912 111.83C66.391 111.83 68.9855 114.422 68.9855 117.624C68.9855 120.828 66.391 123.42 63.1912 123.42C59.9876 123.42 57.395 120.828 57.395 117.624C57.395 114.422 59.9876 111.83 63.1912 111.83Z" fill="#CAB1FF"/>
<path fill-rule="evenodd" clip-rule="evenodd" d="M12.4877 53.8832C14.8853 53.8832 16.8316 55.8313 16.8316 58.2289C16.8316 60.6283 14.8853 62.5727 12.4877 62.5727C10.0846 62.5727 8.14014 60.6283 8.14014 58.2289C8.14014 55.8313 10.0846 53.8832 12.4877 53.8832Z" fill="#CAB1FF"/>
<path fill-rule="evenodd" clip-rule="evenodd" d="M42.9076 1.72717C46.1093 1.72717 48.7037 4.31974 48.7037 7.52146C48.7037 10.725 46.1093 13.3176 42.9076 13.3176C39.7077 13.3176 37.1133 10.725 37.1133 7.52146C37.1133 4.31974 39.7077 1.72717 42.9076 1.72717Z" fill="#CAB1FF"/>
<path fill-rule="evenodd" clip-rule="evenodd" d="M115.345 82.8564C116.944 82.8564 118.244 84.1527 118.244 85.7536C118.244 87.3544 116.944 88.6489 115.345 88.6489C113.745 88.6489 112.45 87.3544 112.45 85.7536C112.45 84.1527 113.745 82.8564 115.345 82.8564Z" fill="#0A0B09"/>
<path fill-rule="evenodd" clip-rule="evenodd" d="M86.3722 123.42C87.9712 123.42 89.2674 124.718 89.2674 126.317C89.2674 127.918 87.9712 129.213 86.3722 129.213C84.7713 129.213 83.4731 127.918 83.4731 126.317C83.4731 124.718 84.7713 123.42 86.3722 123.42Z" fill="#0A0B09"/>
<path fill-rule="evenodd" clip-rule="evenodd" d="M60.2959 10.4204C61.893 10.4204 63.1912 11.7186 63.1912 13.3176C63.1912 14.9166 61.893 16.2147 60.2959 16.2147C58.6913 16.2147 57.395 14.9166 57.395 13.3176C57.395 11.7186 58.6913 10.4204 60.2959 10.4204Z" fill="#0A0B09"/>
<path fill-rule="evenodd" clip-rule="evenodd" d="M8.13997 71.266C9.74268 71.266 11.0371 72.5641 11.0371 74.1631C11.0371 75.764 9.74268 77.0603 8.13997 77.0603C6.53725 77.0603 5.24097 75.764 5.24097 74.1631C5.24097 72.5641 6.53725 71.266 8.13997 71.266Z" fill="#0A0B09"/>
<path fill-rule="evenodd" clip-rule="evenodd" d="M85.1114 108.128L84.6545 108.056C83.8949 107.8 83.4845 106.979 83.7371 106.221L87.8339 93.9268C87.9788 93.4941 88.3187 93.1543 88.7495 93.0094L101.04 88.9144C101.798 88.6618 102.621 89.0704 102.873 89.83C103.126 90.5858 102.717 91.4104 101.958 91.6611L90.3541 95.5295L86.4857 107.137C86.2832 107.744 85.7168 108.128 85.1114 108.128Z" fill="#0A0B09"/>
<path fill-rule="evenodd" clip-rule="evenodd" d="M89.2081 95.8341C88.8385 95.8341 88.4652 95.6911 88.1829 95.4088L30.8158 38.0417C30.2512 37.4771 30.2512 36.5597 30.8158 35.9933C31.3803 35.4287 32.3015 35.4287 32.8642 35.9933L90.2313 93.3604C90.7996 93.9268 90.7996 94.8424 90.2313 95.4088C89.9509 95.6911 89.5776 95.8341 89.2081 95.8341Z" fill="#0A0B09"/>
<path fill-rule="evenodd" clip-rule="evenodd" d="M23.6454 46.6625C23.2758 46.6625 22.9063 46.5214 22.624 46.2391C22.0557 45.6745 22.0557 44.759 22.624 44.1925L39.0114 27.7995C39.576 27.235 40.4952 27.235 41.058 27.7995C41.6262 28.3641 41.6262 29.2834 41.058 29.8498L24.6705 46.2391C24.3901 46.5214 24.0168 46.6625 23.6454 46.6625Z" fill="#0A0B09"/>
<path fill-rule="evenodd" clip-rule="evenodd" d="M17.5 40.5136C17.1304 40.5136 16.7572 40.3725 16.4749 40.0902C15.9084 39.5256 15.9084 38.6082 16.4749 38.0417L32.8642 21.6506C33.4306 21.086 34.348 21.086 34.9144 21.6506C35.479 22.2152 35.479 23.1345 34.9144 23.7009L18.5233 40.0902C18.241 40.3725 17.8696 40.5136 17.5 40.5136Z" fill="#0A0B09"/>
<path fill-rule="evenodd" clip-rule="evenodd" d="M23.9982 124.867C23.6268 124.867 23.2553 124.726 22.9712 124.445L0.438469 101.909C0.165469 101.636 0.0131836 101.268 0.0131836 100.884C0.0131836 100.499 0.165469 100.132 0.438469 99.8604L39.3642 60.9328C39.9306 60.3645 40.8462 60.3645 41.4126 60.9328C41.979 61.4955 41.979 62.413 41.4145 62.9794L3.51204 100.884L23.9982 121.372L61.9025 83.4674C62.4689 82.9047 63.3863 82.9047 63.9509 83.4674C64.5173 84.0357 64.5173 84.9512 63.9509 85.5177L25.0233 124.445C24.7392 124.726 24.3678 124.867 23.9982 124.867Z" fill="#0A0B09"/>
<path fill-rule="evenodd" clip-rule="evenodd" d="M79.3167 69.55C78.9453 69.55 78.5757 69.407 78.2897 69.1247C77.727 68.5601 77.727 67.6427 78.2897 67.0762L116.194 29.1738L95.7078 8.68582L57.8035 46.592C57.2334 47.1584 56.3178 47.1584 55.7533 46.5901C55.1887 46.0255 55.1887 45.1044 55.7533 44.5398L94.6808 5.6141C95.2491 5.04953 96.1647 5.04953 96.7311 5.6141L119.268 28.1505C119.834 28.7151 119.834 29.6344 119.268 30.199L80.3418 69.1247C80.0558 69.407 79.6863 69.55 79.3167 69.55Z" fill="#0A0B09"/>
<path fill-rule="evenodd" clip-rule="evenodd" d="M95.7043 24.4772C95.3329 24.4772 94.9633 24.336 94.6773 24.0537L86.4854 15.8563C85.9209 15.2899 85.9209 14.3743 86.4854 13.8079C87.0519 13.2414 87.9674 13.2414 88.5339 13.8079L96.7276 22.0053C97.294 22.5699 97.294 23.4873 96.7276 24.0537C96.4453 24.336 96.0739 24.4772 95.7043 24.4772Z" fill="#0A0B09"/>
<path fill-rule="evenodd" clip-rule="evenodd" d="M91.6074 32.6708C91.236 32.6708 90.8664 32.5315 90.5804 32.2474L80.342 22.0052C79.7737 21.4388 79.7737 20.5232 80.342 19.9568C80.9047 19.3904 81.8221 19.3904 82.3886 19.9568L92.6325 30.1989C93.199 30.7635 93.199 31.6828 92.6325 32.2474C92.3484 32.5315 91.977 32.6708 91.6074 32.6708Z" fill="#0A0B09"/>
<path fill-rule="evenodd" clip-rule="evenodd" d="M83.4138 36.7696C83.0424 36.7696 82.6728 36.6266 82.3887 36.3425L74.1931 28.1506C73.6267 27.586 73.6267 26.6686 74.1931 26.1022C74.7596 25.5358 75.6733 25.5358 76.2397 26.1022L84.4371 34.2959C85.0035 34.8605 85.0035 35.7798 84.4371 36.3425C84.153 36.6266 83.7834 36.7696 83.4138 36.7696Z" fill="#0A0B09"/>
<path fill-rule="evenodd" clip-rule="evenodd" d="M79.3168 44.9651C78.9454 44.9651 78.5758 44.8258 78.2898 44.5398L68.0495 34.2977C67.4812 33.7294 67.4812 32.812 68.0495 32.2474C68.6122 31.6828 69.5278 31.6828 70.0961 32.2474L80.3419 42.4933C80.9046 43.0597 80.9046 43.9771 80.3419 44.5398C80.0559 44.8258 79.6864 44.9651 79.3168 44.9651Z" fill="#0A0B09"/>
<path fill-rule="evenodd" clip-rule="evenodd" d="M71.1212 49.062C70.7498 49.062 70.3784 48.9209 70.0961 48.6386L61.9024 40.4468C61.3359 39.8803 61.3359 38.961 61.9024 38.3946C62.4688 37.83 63.3862 37.83 63.9508 38.3946L72.1445 46.5902C72.7091 47.1585 72.7091 48.0741 72.1445 48.6386C71.8604 48.9209 71.4908 49.062 71.1212 49.062Z" fill="#0A0B09"/>
<path fill-rule="evenodd" clip-rule="evenodd" d="M42.4396 77.7474C42.0645 77.7474 41.6949 77.6062 41.4126 77.324L33.2245 69.1358C32.6748 68.5917 32.6451 67.7058 33.1688 67.1282C33.7073 66.5339 34.6229 66.4912 35.2135 67.0317L35.2655 67.08L43.4629 75.2737C44.0275 75.8382 44.0275 76.7575 43.4629 77.324C43.1788 77.6062 42.8092 77.7474 42.4396 77.7474Z" fill="#0A0B09"/>
<path fill-rule="evenodd" clip-rule="evenodd" d="M38.3388 85.9412C37.9693 85.9412 37.5997 85.8 37.3174 85.5177L27.0734 75.2737C26.5051 74.7092 26.5051 73.7899 27.0716 73.2253C27.6361 72.6589 28.5517 72.657 29.1181 73.2235L39.364 83.4675C39.9304 84.0357 39.9304 84.9513 39.364 85.5177C39.0817 85.8 38.7103 85.9412 38.3388 85.9412Z" fill="#0A0B09"/>
<path fill-rule="evenodd" clip-rule="evenodd" d="M30.1434 90.038C29.7702 90.038 29.4006 89.8987 29.1183 89.6146L20.9246 81.419C20.3581 80.8544 20.3581 79.937 20.9246 79.3706C21.491 78.806 22.4047 78.806 22.9711 79.3706L31.1667 87.5643C31.7331 88.1307 31.7331 89.0481 31.1667 89.6146C30.8863 89.8987 30.5149 90.038 30.1434 90.038Z" fill="#0A0B09"/>
<path fill-rule="evenodd" clip-rule="evenodd" d="M26.0428 98.2354C25.6733 98.2354 25.3074 98.0942 25.0233 97.8101L14.7811 87.5679L14.7347 87.5178C14.1961 86.9272 14.237 86.0098 14.8275 85.4694C15.4107 84.9419 16.3003 84.9716 16.8425 85.5344L27.0717 95.7617C27.6363 96.3299 27.6363 97.2455 27.0717 97.8101C26.7875 98.0942 26.418 98.2354 26.0428 98.2354Z" fill="#0A0B09"/>
<path fill-rule="evenodd" clip-rule="evenodd" d="M17.8493 102.334C17.4797 102.334 17.1083 102.191 16.826 101.909L8.63232 93.7151C8.36117 93.4421 8.20703 93.0744 8.20703 92.6899C8.20703 91.8895 8.85517 91.2395 9.65746 91.2395C10.0809 91.2395 10.4653 91.4234 10.7272 91.7149L18.8745 99.8604C19.4427 100.425 19.4427 101.342 18.8745 101.909C18.5922 102.191 18.2226 102.334 17.8493 102.334Z" fill="#0A0B09"/>
<path fill-rule="evenodd" clip-rule="evenodd" d="M63.1911 113.278C60.7954 113.278 58.8472 115.226 58.8472 117.624C58.8472 120.022 60.7954 121.972 63.1911 121.972C65.5868 121.972 67.5368 120.022 67.5368 117.624C67.5368 115.226 65.5868 113.278 63.1911 113.278ZM63.1911 124.867C59.1982 124.867 55.9482 121.621 55.9482 117.624C55.9482 113.633 59.1982 110.381 63.1911 110.381C67.1858 110.381 70.4358 113.633 70.4358 117.624C70.4358 121.621 67.1858 124.867 63.1911 124.867Z" fill="#0A0B09"/>
<path fill-rule="evenodd" clip-rule="evenodd" d="M12.4876 55.3299C10.8886 55.3299 9.58864 56.6299 9.58864 58.2289C9.58864 59.8242 10.8886 61.1242 12.4876 61.1242C14.0848 61.1242 15.3829 59.8242 15.3829 58.2289C15.3829 56.6299 14.0848 55.3299 12.4876 55.3299ZM12.4876 64.0232C9.29336 64.0232 6.69336 61.4232 6.69336 58.2289C6.69336 55.0309 9.29336 52.4327 12.4876 52.4327C15.6819 52.4327 18.2819 55.0309 18.2819 58.2289C18.2819 61.4232 15.6819 64.0232 12.4876 64.0232Z" fill="#0A0B09"/>
<path fill-rule="evenodd" clip-rule="evenodd" d="M111 58.2288C107.805 58.2288 105.204 60.827 105.204 64.0231C105.204 67.2156 107.805 69.8193 111 69.8193C114.196 69.8193 116.798 67.2156 116.798 64.0231C116.798 60.827 114.196 58.2288 111 58.2288ZM111 72.7146C106.206 72.7146 102.308 68.8146 102.308 64.0231C102.308 59.2298 106.206 55.3298 111 55.3298C115.795 55.3298 119.691 59.2298 119.691 64.0231C119.691 68.8146 115.795 72.7146 111 72.7146Z" fill="#0A0B09"/>
<path fill-rule="evenodd" clip-rule="evenodd" d="M42.9075 3.17571C40.5118 3.17571 38.5636 5.12571 38.5636 7.52142C38.5636 9.91899 40.5118 11.8671 42.9075 11.8671C45.3069 11.8671 47.2551 9.91899 47.2551 7.52142C47.2551 5.12571 45.3069 3.17571 42.9075 3.17571ZM42.9075 14.7643C38.9165 14.7643 35.6665 11.5161 35.6665 7.52142C35.6665 3.52671 38.9165 0.278564 42.9075 0.278564C46.9041 0.278564 50.1541 3.52671 50.1541 7.52142C50.1541 11.5161 46.9041 14.7643 42.9075 14.7643Z" fill="#0A0B09"/>
<path fill-rule="evenodd" clip-rule="evenodd" d="M85.8633 105.382L105.584 110.76L100.202 91.0389L30.8157 21.6505C28.9029 19.7358 26.3549 18.6846 23.6453 18.6846C20.9357 18.6846 18.3877 19.7358 16.4767 21.6505C14.562 23.5671 13.5034 26.1132 13.5034 28.8228C13.5034 31.5324 14.562 34.0785 16.4749 35.9932L24.6166 44.1405L24.6704 44.1925L85.8633 105.382ZM107.648 114.272L107.267 114.222L84.7304 108.076C84.4872 108.009 84.2643 107.881 84.0842 107.703L22.6777 46.2892L22.622 46.2391L14.4264 38.0416C11.9657 35.5791 10.6082 32.3049 10.6082 28.8228C10.6082 25.3388 11.9657 22.0646 14.4264 19.6039C16.889 17.1414 20.1613 15.7856 23.6453 15.7856C27.1293 15.7856 30.4034 17.1414 32.8642 19.6039L102.522 89.2635C102.704 89.4418 102.83 89.6646 102.897 89.9061L109.009 112.318C109.072 112.474 109.102 112.645 109.102 112.825C109.102 113.624 108.454 114.27 107.659 114.272H107.648Z" fill="#0A0B09"/>
</svg>
