<svg width="40" height="40" viewBox="0 0 40 40" fill="none" xmlns="http://www.w3.org/2000/svg">
<path fill-rule="evenodd" clip-rule="evenodd" d="M0 20C0 8.96 8.96 0 20 0C31.04 0 40 8.96 40 20C40 31.04 31.04 40 20 40C8.96 40 0 31.04 0 20ZM22 28V32H18V28H22ZM20 36C11.18 36 4 28.82 4 20C4 11.18 11.18 4 20 4C28.82 4 36 11.18 36 20C36 28.82 28.82 36 20 36ZM12 16C12 11.58 15.58 8 20 8C24.42 8 28 11.58 28 16C28 18.5658 26.42 19.9466 24.8815 21.2911C23.422 22.5665 22 23.8093 22 26H18C18 22.3575 19.8842 20.9132 21.5409 19.6434C22.8405 18.6472 24 17.7584 24 16C24 13.8 22.2 12 20 12C17.8 12 16 13.8 16 16H12Z" fill="black" fill-opacity="0.4"/>
</svg>
