<svg width="40" height="40" viewBox="0 0 40 40" fill="none" xmlns="http://www.w3.org/2000/svg">
<path fill-rule="evenodd" clip-rule="evenodd" d="M20.3333 8.43333V5C27.0167 6.51667 32 12.4833 32 19.6167C32 26.75 27.0167 32.7167 20.3333 34.2333V30.8C25.15 29.3667 28.6667 24.9 28.6667 19.6167C28.6667 14.3333 25.15 9.86667 20.3333 8.43333ZM2 24.6167V14.6167H8.66667L17 6.28333V32.95L8.66667 24.6167H2ZM13.6667 24.9V14.3333L10.05 17.95H5.33333V21.2833H10.05L13.6667 24.9ZM24.5 19.6167C24.5 16.6667 22.8 14.1333 20.3333 12.9V26.3167C22.8 25.1 24.5 22.5667 24.5 19.6167Z" fill="black" fill-opacity="0.6"/>
</svg>
