<svg class="logo" width="215" height="110" viewBox="20 10 340 180" fill="none" xmlns="http://www.w3.org/2000/svg">
<path class="logo__spot" d="M175.666 25.0619C142.414 51.1505 152.044 70.0573 125.396 59.3908C113.12 54.4773 68.7753 49.8027 63.0756 88.0163C58.1414 121.097 39.2102 103.878 25.7559 109.594C12.3016 115.31 9.71151 132.884 21.7185 141.699C33.7255 150.514 43.2355 142.596 51.654 132.433C60.0724 122.27 80.3091 156.236 89.8954 165.201C99.4816 174.166 130.263 188.889 164.976 154.484C190.953 128.736 187.215 179.599 217.443 175.799C260.766 170.352 253.946 114.654 271.786 105.235C300.372 90.1433 287.331 40.1802 254.858 22.0644C233.638 10.226 198.856 6.86725 175.666 25.0619Z" fill="#CAB1FF"/>
<path d="M275.305 78.2634C274.693 69.8469 282.33 51.0145 295.865 47.0855C299.256 46.1009 301.821 47.8683 303.558 52.3878C307.946 45.5638 311.062 42.4423 312.906 43.0234C317.879 44.5912 305.819 52.5767 301.504 87.0641C297.675 117.673 285.743 130.322 272.84 139.461C252.288 154.019 211.26 160.145 201.25 145.958C193.614 135.135 207.216 127.1 232.307 124.617C251.043 122.764 343.285 140.712 358.726 99.9335C362.425 90.1628 355.789 82.2298 349.948 77.6052C346.329 74.74 342.411 73.3635 340.153 72.9549C338.947 72.7365 338.915 71.8878 339.907 71.694C347.72 70.1685 368.829 85.2487 360.54 103.683C348.466 130.537 298.526 131.474 253.752 128.003C212.827 124.829 203.516 134.823 203.025 139.088C202.535 143.352 208.926 154.925 238.576 148.251C252.948 145.015 268.327 138.137 277.54 127.732C287.332 116.672 290.528 101.983 291.102 95.851C291.846 87.9175 294.174 77.4002 298.088 64.2991C289.056 77.84 283.395 84.8341 281.104 85.2813C278.574 85.7753 277.08 84.259 276.196 82.0461C274.417 90.8471 272.12 95.8514 269.304 97.0589C262.704 99.8886 257.098 91.6537 258.646 81.5638C259.678 74.8371 261.537 68.7297 264.224 63.2415C259.766 67.0887 256.21 72.9907 253.554 80.9475C248.569 95.8866 246.627 104.776 246.877 107.61C247.044 109.498 244.55 111.922 242.552 111.641C238.707 111.101 236.815 100.758 237.779 89.8558C238.046 86.8402 238.409 83.1426 238.964 79.5818C238.498 80.7598 238.039 82.0079 237.619 83.3045C233.26 96.7629 230.988 120.449 222.74 115.581C212.923 109.787 215.533 81.638 217.592 75.7418C216.856 77.3134 214.739 81.6054 212.933 86.6651C210.206 94.3091 207.245 103.016 203.345 101.272C201.877 100.615 200.758 99.3105 199.948 97.5813C199.368 108.909 196.98 120.792 194.68 123.517C187.218 132.359 176.15 116.716 172.557 91.3925C168.964 66.0687 181.539 37.909 195.064 43.264C208.59 48.6189 196.09 85.3472 178.791 95.6661C165.597 103.537 129.886 95.407 116.728 115.504C112.265 122.322 111.344 129.067 113.03 135.184C113.601 134.708 113.946 134.42 114.032 134.342C119.889 129.095 131.354 124.163 139.544 124.452C147.734 124.741 157.588 128.359 161.46 136.479C165.269 144.467 165.29 154.933 155.69 162.692C163.524 162.783 170.24 159.849 173.312 152.001C183.422 126.174 124.907 109.977 113.33 86.5766C109.856 79.556 105.773 66.5427 119.601 54.2927C128.894 46.0602 140.143 46.1996 149.008 47.8736C160.42 50.0285 164.982 58.4581 165.7 64.4962C167.103 76.2985 158.413 85.9521 151.151 85.9294C141.715 85.8998 141.331 75.4805 141.982 72.1834C148.206 40.6642 166.209 31.227 199.496 25.9823C232.783 20.7377 263.874 45.3271 281.608 41.8644C293.947 39.4552 301.666 23.5763 299.339 19.1977C298.857 18.2906 298.005 18.6654 298.449 17.6892C298.892 16.7129 300.455 16.682 301.423 18.1136C306.146 25.0933 300.376 43.5262 284.411 48.7335C270.502 53.2704 251.585 39.9698 231.134 34.2775C211.901 28.9241 193.538 29.8339 182.128 32.996C158.586 39.5206 151.799 50.3416 147.068 65.0215C142.337 79.7013 148.941 84.4889 152.624 83.7698C156.307 83.0507 162.494 78.138 163.654 70.2219C166.629 49.9362 138.451 44.7851 126.406 52.964C105.671 67.0442 120.375 86.6146 143.88 96.9918C176.211 111.265 204.798 139.165 179.939 163.128C170.938 171.805 157.336 173.094 144.334 168.792C142.291 169.523 140.06 170.182 137.628 170.761C115.268 176.08 90.7974 151.648 83.3062 141.003C77.2192 132.353 64.3491 117.552 59.7066 110.327C58.6617 108.701 58.9436 107.58 59.0749 107.092C59.5422 105.357 61.9417 105.223 66.2737 106.69C82.4232 108.408 91.3312 101.096 92.9975 84.7526C94.0188 74.7361 84.4627 57.6921 70.2159 63.7267C67.4247 64.9089 61.5413 69.2759 57.2069 79.5915C56.1183 82.182 54.5653 87.444 52.5477 95.3774C59.4313 108.065 65.6077 140.836 60.8391 149.553C58.0381 154.673 54.3463 151.987 54.0439 145.748C53.7415 139.509 52.3855 118.948 40.432 98.428C37.0757 92.6664 34.696 83.704 39.8189 82.2304C41.7956 81.6618 44.9807 82.4917 51.1703 92.9687C52.3588 86.0787 52.4497 86.1136 56.5404 76.1782C60.7194 66.0282 68.3749 61.6689 71.5323 60.2168C84.8522 54.0909 103.825 57.3545 103.73 81.5795C103.673 96.2165 88.5097 108.768 71.0443 109.185C77.6123 112.2 88.0978 122.812 92.1608 127.467C93.9643 129.533 104.665 142.623 109.949 148.964C117.936 158.547 126.494 166.556 135.061 167.513C136.855 167.713 138.721 167.669 140.599 167.396C130.428 163.148 120.948 155.499 114.746 145.345C113.391 143.126 112.354 140.917 111.605 138.735C102.058 147.013 92.1976 156.445 82.0864 165.737C75.225 172.043 62.6539 179.87 57.4707 180.882C50.0361 182.334 42.443 181.69 35.1987 177.289C26.5711 172.047 24.2715 165.704 23.3511 160.99C22.7173 157.744 23.3457 155.741 24.4618 154.798C28.4872 151.398 28.9635 158.042 32.6476 164.224C36.7493 171.106 44.3016 177.781 54.186 177.049C63.4079 176.366 77.4694 166.146 82.781 161.349C94.8307 150.467 105.887 141.152 111.027 136.855C106.358 119.609 119.385 104.439 134.458 100.301C149.699 96.1177 163.421 98.7525 173.575 95.703C180.961 93.4851 185.9 87.8925 191.079 78.8372C203.378 57.3315 198.632 42.5673 189.519 44.3468C187.945 44.6541 174.392 54.0021 180.696 86.2872C187 118.572 192.711 123.902 193.944 119.749C196.5 111.14 197.989 101.69 198.413 91.3983C197.846 85.6985 198.869 78.81 200.928 73.9235C204.679 65.0215 215.392 63.2642 217.808 71.5457C218.109 72.8451 217.559 72.9726 217.291 72.4607C216.639 71.2164 212.522 68.8266 210.073 71.8043C207.214 75.2798 205.878 84.956 206.881 92.824C208.274 90.1055 218.909 67.1674 220.746 66.2829C222.584 65.3984 224.685 66.1329 224.3 74.1872C223.914 82.2415 223.301 102.518 226.436 108.776C230.333 102.967 236.227 78.8288 240.695 71.776C241.579 69.0575 242.711 67.0651 244.175 66.5256C248.871 64.7948 247.737 70.2722 247.666 77.9499C247.618 83.0684 247.435 89.0439 247.116 95.8762C248.771 88.9259 250.789 82.5029 253.171 76.6073C255.931 69.7726 261.137 61.1744 265.368 60.8006C269.875 60.4025 271.228 67.7847 269.465 77.4986C267.701 87.2125 268.989 95.4976 271.736 91.1448C272.726 89.5763 273.915 85.2825 275.305 78.2634ZM113.615 137.006C115.402 141.871 118.85 146.285 123.454 149.949C131.055 155.997 142.362 161.404 152.461 162.495C154.99 160.663 157.257 158.374 159.058 155.681C162.006 151.273 162.012 141.091 158.429 136.407C152.908 129.189 146.604 127.524 139.986 126.717C134.59 126.06 122.369 129.661 115.788 135.169C115.065 135.773 114.341 136.386 113.615 137.006ZM301.519 54.6526C300.908 51.5204 299.716 50.1273 297.945 50.4732C288.588 52.3002 281.813 76.1599 282.254 78.4184C283.825 77.5617 290.247 69.6398 301.519 54.6526Z" fill="black"/>
</svg>
