<svg width="31" height="30" viewBox="0 0 31 30" fill="none" xmlns="http://www.w3.org/2000/svg">
<path fill-rule="evenodd" clip-rule="evenodd" d="M15.3785 0C6.8867 0 0 6.88563 0 15.3801C0 22.1751 4.4064 27.9391 10.518 29.9727C11.2875 30.1144 11.5679 29.6395 11.5679 29.2316C11.5679 28.8672 11.5547 27.8994 11.5471 26.6163C7.2691 27.5454 6.36648 24.5543 6.36648 24.5543C5.66686 22.7774 4.6585 22.3044 4.6585 22.3044C3.26208 21.3508 4.76424 21.3697 4.76424 21.3697C6.30795 21.4783 7.11991 22.9549 7.11991 22.9549C8.49178 25.3049 10.72 24.6261 11.5962 24.2324C11.7359 23.2391 12.1334 22.5612 12.5724 22.177C9.15741 21.7889 5.56678 20.469 5.56678 14.5757C5.56678 12.897 6.16634 11.5233 7.15015 10.4488C6.99154 10.0598 6.46375 8.49539 7.30122 6.37863C7.30122 6.37863 8.59186 5.96509 11.5301 7.95534C12.7566 7.61356 14.0727 7.44362 15.3804 7.43701C16.6871 7.44362 18.0023 7.61356 19.2307 7.95534C22.167 5.96509 23.4558 6.37863 23.4558 6.37863C24.2952 8.49539 23.7674 10.0598 23.6097 10.4488C24.5954 11.5233 25.1902 12.897 25.1902 14.5757C25.1902 20.4841 21.5939 21.7842 18.1685 22.1647C18.7199 22.6396 19.2118 23.5781 19.2118 25.0132C19.2118 27.0686 19.1929 28.7274 19.1929 29.2316C19.1929 29.6432 19.4705 30.1219 20.2504 29.9718C26.3572 27.9334 30.7598 22.1732 30.7598 15.3801C30.7598 6.88563 23.8731 0 15.3785 0Z" fill="black"/>
</svg>
